%TF.GenerationSoftware,KiCad,Pcbnew,9.0.6*%
%TF.CreationDate,2026-01-05T22:50:17-06:00*%
%TF.ProjectId,learntosolderkit,6c656172-6e74-46f7-936f-6c6465726b69,rev?*%
%TF.SameCoordinates,Original*%
%TF.FileFunction,Copper,L1,Top*%
%TF.FilePolarity,Positive*%
%FSLAX46Y46*%
G04 Gerber Fmt 4.6, Leading zero omitted, Abs format (unit mm)*
G04 Created by KiCad (PCBNEW 9.0.6) date 2026-01-05 22:50:17*
%MOMM*%
%LPD*%
G01*
G04 APERTURE LIST*
G04 Aperture macros list*
%AMRoundRect*
0 Rectangle with rounded corners*
0 $1 Rounding radius*
0 $2 $3 $4 $5 $6 $7 $8 $9 X,Y pos of 4 corners*
0 Add a 4 corners polygon primitive as box body*
4,1,4,$2,$3,$4,$5,$6,$7,$8,$9,$2,$3,0*
0 Add four circle primitives for the rounded corners*
1,1,$1+$1,$2,$3*
1,1,$1+$1,$4,$5*
1,1,$1+$1,$6,$7*
1,1,$1+$1,$8,$9*
0 Add four rect primitives between the rounded corners*
20,1,$1+$1,$2,$3,$4,$5,0*
20,1,$1+$1,$4,$5,$6,$7,0*
20,1,$1+$1,$6,$7,$8,$9,0*
20,1,$1+$1,$8,$9,$2,$3,0*%
G04 Aperture macros list end*
%TA.AperFunction,ComponentPad*%
%ADD10C,1.600000*%
%TD*%
%TA.AperFunction,ComponentPad*%
%ADD11C,2.000000*%
%TD*%
%TA.AperFunction,ComponentPad*%
%ADD12RoundRect,0.250000X-0.550000X0.550000X-0.550000X-0.550000X0.550000X-0.550000X0.550000X0.550000X0*%
%TD*%
%TA.AperFunction,Conductor*%
%ADD13C,1.000000*%
%TD*%
G04 APERTURE END LIST*
D10*
%TO.P,REF\u002A\u002A,1*%
%TO.N,N/C*%
X172980000Y-106840000D03*
X170440000Y-106840000D03*
X167900000Y-106840000D03*
X165360000Y-106840000D03*
X162820000Y-106840000D03*
X172980000Y-104300000D03*
X170440000Y-104300000D03*
X167900000Y-104300000D03*
X165360000Y-104300000D03*
X162820000Y-104300000D03*
X162820000Y-73820000D03*
X162820000Y-76360000D03*
X162820000Y-78900000D03*
X162820000Y-81440000D03*
X162820000Y-83980000D03*
X162820000Y-86520000D03*
X162820000Y-89060000D03*
X162820000Y-91600000D03*
X162820000Y-94140000D03*
X162820000Y-96680000D03*
X162820000Y-99220000D03*
X162820000Y-101760000D03*
X165360000Y-73820000D03*
X165360000Y-76360000D03*
X165360000Y-78900000D03*
X165360000Y-81440000D03*
X165360000Y-83980000D03*
X165360000Y-86520000D03*
X165360000Y-89060000D03*
X165360000Y-91600000D03*
X165360000Y-94140000D03*
X165360000Y-96680000D03*
X165360000Y-99220000D03*
X165360000Y-101760000D03*
X167900000Y-73820000D03*
X167900000Y-76360000D03*
X167900000Y-78900000D03*
X167900000Y-81440000D03*
X167900000Y-83980000D03*
X167900000Y-86520000D03*
X167900000Y-89060000D03*
X167900000Y-91600000D03*
X167900000Y-94140000D03*
X167900000Y-96680000D03*
X167900000Y-99220000D03*
X167900000Y-101760000D03*
X170440000Y-73820000D03*
X170440000Y-76360000D03*
X170440000Y-78900000D03*
X170440000Y-81440000D03*
X170440000Y-83980000D03*
X170440000Y-86520000D03*
X170440000Y-89060000D03*
X170440000Y-91600000D03*
X170440000Y-94140000D03*
X170440000Y-96680000D03*
X170440000Y-99220000D03*
X170440000Y-101760000D03*
X172980000Y-73820000D03*
X172980000Y-76360000D03*
X172980000Y-78900000D03*
X172980000Y-81440000D03*
X172980000Y-83980000D03*
X172980000Y-86520000D03*
X172980000Y-89060000D03*
X172980000Y-91600000D03*
X172980000Y-94140000D03*
X172980000Y-96680000D03*
X172980000Y-99220000D03*
X172980000Y-101760000D03*
%TD*%
%TO.P,BZ1,1,+*%
%TO.N,Net-(BZ1-+)*%
X154500000Y-82800000D03*
%TO.P,BZ1,2,-*%
%TO.N,GND*%
X154500000Y-75200000D03*
%TD*%
%TO.P,RV2,1,1*%
%TO.N,unconnected-(RV2-Pad1)*%
X129640000Y-91440000D03*
%TO.P,RV2,2,2*%
%TO.N,Net-(U1-THR)*%
X127100000Y-93980000D03*
%TO.P,RV2,3,3*%
%TO.N,Net-(RV2-Pad3)*%
X124800000Y-91440000D03*
%TD*%
%TO.P,J1,2*%
%TO.N,GND*%
X129750000Y-77000000D03*
%TO.P,J1,1*%
%TO.N,+9V*%
X132290000Y-77000000D03*
%TD*%
%TO.P,R2,1*%
%TO.N,buzz*%
X146000000Y-75000000D03*
%TO.P,R2,2*%
%TO.N,Net-(BZ1-+)*%
X146000000Y-85160000D03*
%TD*%
D11*
%TO.P,SW3,1,1*%
%TO.N,Net-(U1-DIS)*%
X140250000Y-99750000D03*
X140250000Y-106250000D03*
%TO.P,SW3,2,2*%
%TO.N,Net-(RV3-Pad3)*%
X135750000Y-99750000D03*
X135750000Y-106250000D03*
%TD*%
D10*
%TO.P,R1,1*%
%TO.N,+9V*%
X136160000Y-81000000D03*
%TO.P,R1,2*%
%TO.N,Net-(U1-DIS)*%
X126000000Y-81000000D03*
%TD*%
%TO.P,C1,1*%
%TO.N,Net-(U1-THR)*%
X141000000Y-82500000D03*
%TO.P,C1,2*%
%TO.N,GND*%
X141000000Y-75000000D03*
%TD*%
D12*
%TO.P,U1,1,GND*%
%TO.N,GND*%
X121810000Y-74380000D03*
D10*
%TO.P,U1,2,TR*%
%TO.N,Net-(U1-THR)*%
X119270000Y-74380000D03*
%TO.P,U1,3,Q*%
%TO.N,buzz*%
X116730000Y-74380000D03*
%TO.P,U1,4,R*%
%TO.N,+9V*%
X114190000Y-74380000D03*
%TO.P,U1,5,CV*%
%TO.N,unconnected-(U1-CV-Pad5)*%
X114190000Y-82000000D03*
%TO.P,U1,6,THR*%
%TO.N,Net-(U1-THR)*%
X116730000Y-82000000D03*
%TO.P,U1,7,DIS*%
%TO.N,Net-(U1-DIS)*%
X119270000Y-82000000D03*
%TO.P,U1,8,VCC*%
%TO.N,+9V*%
X121810000Y-82000000D03*
%TD*%
D11*
%TO.P,SW1,1,1*%
%TO.N,Net-(U1-DIS)*%
X119250000Y-99750000D03*
X119250000Y-106250000D03*
%TO.P,SW1,2,2*%
%TO.N,Net-(RV1-Pad3)*%
X114750000Y-99750000D03*
X114750000Y-106250000D03*
%TD*%
%TO.P,SW2,1,1*%
%TO.N,Net-(U1-DIS)*%
X129500000Y-99750000D03*
X129500000Y-106250000D03*
%TO.P,SW2,2,2*%
%TO.N,Net-(RV2-Pad3)*%
X125000000Y-99750000D03*
X125000000Y-106250000D03*
%TD*%
D10*
%TO.P,RV3,3,3*%
%TO.N,Net-(RV3-Pad3)*%
X135700000Y-91540000D03*
%TO.P,RV3,2,2*%
%TO.N,Net-(U1-THR)*%
X138000000Y-94080000D03*
%TO.P,RV3,1,1*%
%TO.N,unconnected-(RV3-Pad1)*%
X140540000Y-91540000D03*
%TD*%
%TO.P,RV1,1,1*%
%TO.N,unconnected-(RV1-Pad1)*%
X119340000Y-91440000D03*
%TO.P,RV1,2,2*%
%TO.N,Net-(U1-THR)*%
X116800000Y-93980000D03*
%TO.P,RV1,3,3*%
%TO.N,Net-(RV1-Pad3)*%
X114500000Y-91440000D03*
%TD*%
D13*
%TO.N,Net-(U1-DIS)*%
X122000000Y-89375000D02*
X119270000Y-86645000D01*
X119270000Y-86645000D02*
X119270000Y-82000000D01*
X122000000Y-93750000D02*
X122000000Y-89375000D01*
X119250000Y-96500000D02*
X122000000Y-93750000D01*
X119250000Y-99750000D02*
X119250000Y-96500000D01*
%TO.N,Net-(U1-THR)*%
X116730000Y-93910000D02*
X116800000Y-93980000D01*
X116730000Y-82000000D02*
X116730000Y-93910000D01*
X138000000Y-85500000D02*
X138000000Y-94080000D01*
X141000000Y-82500000D02*
X138000000Y-85500000D01*
%TO.N,Net-(RV3-Pad3)*%
X135700000Y-91540000D02*
X135700000Y-99700000D01*
X135700000Y-99700000D02*
X135750000Y-99750000D01*
%TO.N,Net-(RV2-Pad3)*%
X124800000Y-99550000D02*
X125000000Y-99750000D01*
X124800000Y-91440000D02*
X124800000Y-99550000D01*
%TO.N,Net-(RV1-Pad3)*%
X114500000Y-99500000D02*
X114750000Y-99750000D01*
X114500000Y-91440000D02*
X114500000Y-99500000D01*
%TO.N,buzz*%
X146000000Y-73900000D02*
X144601000Y-72501000D01*
X118609000Y-72501000D02*
X116730000Y-74380000D01*
X146000000Y-75000000D02*
X146000000Y-73900000D01*
X144601000Y-72501000D02*
X118609000Y-72501000D01*
%TO.N,Net-(U1-DIS)*%
X120800000Y-79300000D02*
X124300000Y-79300000D01*
X119270000Y-80830000D02*
X119270000Y-82000000D01*
X120800000Y-79300000D02*
X119270000Y-80830000D01*
X126000000Y-81000000D02*
X124300000Y-79300000D01*
%TO.N,Net-(BZ1-+)*%
X152140000Y-85160000D02*
X154500000Y-82800000D01*
X146000000Y-85160000D02*
X152140000Y-85160000D01*
%TO.N,Net-(U1-THR)*%
X116730000Y-79070000D02*
X116730000Y-82000000D01*
X119270000Y-76530000D02*
X116730000Y-79070000D01*
X119270000Y-74380000D02*
X119270000Y-76530000D01*
%TO.N,Net-(U1-DIS)*%
X129500000Y-99750000D02*
X129500000Y-102600000D01*
X129600000Y-102700000D02*
X119250000Y-102700000D01*
X129500000Y-102600000D02*
X129600000Y-102700000D01*
X140250000Y-102700000D02*
X129600000Y-102700000D01*
X140250000Y-99750000D02*
X140250000Y-102700000D01*
X119250000Y-99750000D02*
X119250000Y-102700000D01*
%TO.N,Net-(U1-THR)*%
X116730000Y-82000000D02*
X117000000Y-82000000D01*
%TD*%
%TA.AperFunction,Conductor*%
%TO.N,GND*%
G36*
X117320835Y-72020185D02*
G01*
X117366590Y-72072989D01*
X117376534Y-72142147D01*
X117347509Y-72205703D01*
X117341477Y-72212181D01*
X116594061Y-72959595D01*
X116532738Y-72993080D01*
X116525779Y-72994387D01*
X116402047Y-73013985D01*
X116192396Y-73082103D01*
X116192393Y-73082104D01*
X115995974Y-73182187D01*
X115817641Y-73311752D01*
X115817636Y-73311756D01*
X115661756Y-73467636D01*
X115661752Y-73467641D01*
X115560318Y-73607254D01*
X115504988Y-73649920D01*
X115435375Y-73655899D01*
X115373580Y-73623293D01*
X115359682Y-73607254D01*
X115258247Y-73467641D01*
X115258243Y-73467636D01*
X115102363Y-73311756D01*
X115102358Y-73311752D01*
X114924025Y-73182187D01*
X114924024Y-73182186D01*
X114924022Y-73182185D01*
X114861096Y-73150122D01*
X114727606Y-73082104D01*
X114727603Y-73082103D01*
X114517952Y-73013985D01*
X114409086Y-72996742D01*
X114300222Y-72979500D01*
X114079778Y-72979500D01*
X114025575Y-72988085D01*
X113862047Y-73013985D01*
X113652396Y-73082103D01*
X113652393Y-73082104D01*
X113455974Y-73182187D01*
X113277641Y-73311752D01*
X113277636Y-73311756D01*
X113121756Y-73467636D01*
X113121752Y-73467641D01*
X112992187Y-73645974D01*
X112892104Y-73842393D01*
X112892103Y-73842396D01*
X112823985Y-74052047D01*
X112789500Y-74269778D01*
X112789500Y-74490221D01*
X112823985Y-74707952D01*
X112892103Y-74917603D01*
X112892104Y-74917606D01*
X112957325Y-75045606D01*
X112990248Y-75110221D01*
X112992187Y-75114025D01*
X113121752Y-75292358D01*
X113121756Y-75292363D01*
X113277636Y-75448243D01*
X113277641Y-75448247D01*
X113400635Y-75537606D01*
X113455978Y-75577815D01*
X113566217Y-75633985D01*
X113652393Y-75677895D01*
X113652396Y-75677896D01*
X113726906Y-75702105D01*
X113862049Y-75746015D01*
X114079778Y-75780500D01*
X114079779Y-75780500D01*
X114300221Y-75780500D01*
X114300222Y-75780500D01*
X114517951Y-75746015D01*
X114727606Y-75677895D01*
X114924022Y-75577815D01*
X115102365Y-75448242D01*
X115258242Y-75292365D01*
X115281714Y-75260058D01*
X115359682Y-75152745D01*
X115415011Y-75110079D01*
X115484625Y-75104100D01*
X115546420Y-75136705D01*
X115560318Y-75152745D01*
X115661752Y-75292358D01*
X115661756Y-75292363D01*
X115817636Y-75448243D01*
X115817641Y-75448247D01*
X115940635Y-75537606D01*
X115995978Y-75577815D01*
X116106217Y-75633985D01*
X116192393Y-75677895D01*
X116192396Y-75677896D01*
X116266906Y-75702105D01*
X116402049Y-75746015D01*
X116619778Y-75780500D01*
X116619779Y-75780500D01*
X116840221Y-75780500D01*
X116840222Y-75780500D01*
X117057951Y-75746015D01*
X117267606Y-75677895D01*
X117464022Y-75577815D01*
X117642365Y-75448242D01*
X117798242Y-75292365D01*
X117899683Y-75152742D01*
X117921958Y-75135565D01*
X117942133Y-75115959D01*
X117949256Y-75114515D01*
X117955011Y-75110078D01*
X117983038Y-75107670D01*
X118010611Y-75102084D01*
X118017383Y-75104720D01*
X118024624Y-75104099D01*
X118049504Y-75117226D01*
X118075720Y-75127433D01*
X118082951Y-75134874D01*
X118086420Y-75136704D01*
X118100314Y-75152738D01*
X118145819Y-75215370D01*
X118169298Y-75281175D01*
X118169500Y-75288254D01*
X118169500Y-76022796D01*
X118149815Y-76089835D01*
X118133181Y-76110477D01*
X115890588Y-78353069D01*
X115890588Y-78353070D01*
X115890586Y-78353072D01*
X115846859Y-78413256D01*
X115788768Y-78493211D01*
X115710128Y-78647552D01*
X115656597Y-78812302D01*
X115629500Y-78983389D01*
X115629500Y-81091744D01*
X115623503Y-81112164D01*
X115622289Y-81133414D01*
X115610959Y-81154884D01*
X115609815Y-81158783D01*
X115605818Y-81164629D01*
X115560318Y-81227255D01*
X115504989Y-81269921D01*
X115435375Y-81275900D01*
X115373580Y-81243295D01*
X115359682Y-81227255D01*
X115258247Y-81087641D01*
X115258243Y-81087636D01*
X115102363Y-80931756D01*
X115102358Y-80931752D01*
X114924025Y-80802187D01*
X114924024Y-80802186D01*
X114924022Y-80802185D01*
X114808630Y-80743389D01*
X114727606Y-80702104D01*
X114727603Y-80702103D01*
X114517952Y-80633985D01*
X114409086Y-80616742D01*
X114300222Y-80599500D01*
X114079778Y-80599500D01*
X114007201Y-80610995D01*
X113862047Y-80633985D01*
X113652396Y-80702103D01*
X113652393Y-80702104D01*
X113455974Y-80802187D01*
X113277641Y-80931752D01*
X113277636Y-80931756D01*
X113121756Y-81087636D01*
X113121752Y-81087641D01*
X112992187Y-81265974D01*
X112892104Y-81462393D01*
X112892103Y-81462396D01*
X112823985Y-81672047D01*
X112823985Y-81672049D01*
X112789500Y-81889778D01*
X112789500Y-82110222D01*
X112803373Y-82197812D01*
X112823985Y-82327952D01*
X112892103Y-82537603D01*
X112892104Y-82537606D01*
X112953915Y-82658913D01*
X112990175Y-82730078D01*
X112992187Y-82734025D01*
X113121752Y-82912358D01*
X113121756Y-82912363D01*
X113277636Y-83068243D01*
X113277641Y-83068247D01*
X113359819Y-83127952D01*
X113455978Y-83197815D01*
X113584375Y-83263237D01*
X113652393Y-83297895D01*
X113652396Y-83297896D01*
X113757221Y-83331955D01*
X113862049Y-83366015D01*
X114079778Y-83400500D01*
X114079779Y-83400500D01*
X114300221Y-83400500D01*
X114300222Y-83400500D01*
X114517951Y-83366015D01*
X114727606Y-83297895D01*
X114924022Y-83197815D01*
X115102365Y-83068242D01*
X115258242Y-82912365D01*
X115359683Y-82772742D01*
X115381958Y-82755565D01*
X115402133Y-82735959D01*
X115409256Y-82734515D01*
X115415011Y-82730078D01*
X115443038Y-82727670D01*
X115470611Y-82722084D01*
X115477383Y-82724720D01*
X115484624Y-82724099D01*
X115509504Y-82737226D01*
X115535720Y-82747433D01*
X115542951Y-82754874D01*
X115546420Y-82756704D01*
X115560314Y-82772738D01*
X115605818Y-82835369D01*
X115629298Y-82901175D01*
X115629500Y-82908254D01*
X115629500Y-90289531D01*
X115609815Y-90356570D01*
X115557011Y-90402325D01*
X115487853Y-90412269D01*
X115424297Y-90383244D01*
X115417819Y-90377212D01*
X115412363Y-90371756D01*
X115412358Y-90371752D01*
X115234025Y-90242187D01*
X115234024Y-90242186D01*
X115234022Y-90242185D01*
X115171096Y-90210122D01*
X115037606Y-90142104D01*
X115037603Y-90142103D01*
X114827952Y-90073985D01*
X114719086Y-90056742D01*
X114610222Y-90039500D01*
X114389778Y-90039500D01*
X114317201Y-90050995D01*
X114172047Y-90073985D01*
X113962396Y-90142103D01*
X113962393Y-90142104D01*
X113765974Y-90242187D01*
X113587641Y-90371752D01*
X113587636Y-90371756D01*
X113431756Y-90527636D01*
X113431752Y-90527641D01*
X113302187Y-90705974D01*
X113202104Y-90902393D01*
X113202103Y-90902396D01*
X113133985Y-91112047D01*
X113099500Y-91329778D01*
X113099500Y-91550222D01*
X113116742Y-91659086D01*
X113133985Y-91767952D01*
X113202103Y-91977603D01*
X113202104Y-91977606D01*
X113253058Y-92077606D01*
X113302185Y-92174022D01*
X113375819Y-92275370D01*
X113399298Y-92341174D01*
X113399500Y-92348254D01*
X113399500Y-98846206D01*
X113382526Y-98906399D01*
X113383342Y-98906815D01*
X113381254Y-98910911D01*
X113381234Y-98910985D01*
X113381134Y-98911147D01*
X113266760Y-99135616D01*
X113188910Y-99375214D01*
X113149500Y-99624038D01*
X113149500Y-99875961D01*
X113188910Y-100124785D01*
X113266760Y-100364383D01*
X113381132Y-100588848D01*
X113529201Y-100792649D01*
X113529205Y-100792654D01*
X113707345Y-100970794D01*
X113707350Y-100970798D01*
X113885117Y-101099952D01*
X113911155Y-101118870D01*
X114054184Y-101191747D01*
X114135616Y-101233239D01*
X114135618Y-101233239D01*
X114135621Y-101233241D01*
X114375215Y-101311090D01*
X114624038Y-101350500D01*
X114624039Y-101350500D01*
X114875961Y-101350500D01*
X114875962Y-101350500D01*
X115124785Y-101311090D01*
X115364379Y-101233241D01*
X115588845Y-101118870D01*
X115792656Y-100970793D01*
X115970793Y-100792656D01*
X116118870Y-100588845D01*
X116233241Y-100364379D01*
X116311090Y-100124785D01*
X116350500Y-99875962D01*
X116350500Y-99624038D01*
X116311090Y-99375215D01*
X116233241Y-99135621D01*
X116233239Y-99135618D01*
X116233239Y-99135616D01*
X116191747Y-99054184D01*
X116118870Y-98911155D01*
X116050500Y-98817051D01*
X115970798Y-98707350D01*
X115970794Y-98707345D01*
X115792657Y-98529208D01*
X115792654Y-98529206D01*
X115732759Y-98485689D01*
X115651614Y-98426733D01*
X115608949Y-98371402D01*
X115600500Y-98326415D01*
X115600500Y-95060469D01*
X115620185Y-94993430D01*
X115672989Y-94947675D01*
X115742147Y-94937731D01*
X115805703Y-94966756D01*
X115812181Y-94972788D01*
X115887636Y-95048243D01*
X115887641Y-95048247D01*
X115949831Y-95093430D01*
X116065978Y-95177815D01*
X116194375Y-95243237D01*
X116262393Y-95277895D01*
X116262396Y-95277896D01*
X116367221Y-95311955D01*
X116472049Y-95346015D01*
X116689778Y-95380500D01*
X116689779Y-95380500D01*
X116910221Y-95380500D01*
X116910222Y-95380500D01*
X117127951Y-95346015D01*
X117337606Y-95277895D01*
X117534022Y-95177815D01*
X117712365Y-95048242D01*
X117868242Y-94892365D01*
X117997815Y-94714022D01*
X118097895Y-94517606D01*
X118166015Y-94307951D01*
X118200500Y-94090222D01*
X118200500Y-93869778D01*
X118166015Y-93652049D01*
X118097895Y-93442394D01*
X118097895Y-93442393D01*
X118063237Y-93374375D01*
X117997815Y-93245978D01*
X117970499Y-93208381D01*
X117868247Y-93067641D01*
X117868243Y-93067636D01*
X117866819Y-93066212D01*
X117866451Y-93065538D01*
X117865085Y-93063939D01*
X117865421Y-93063651D01*
X117833334Y-93004889D01*
X117830500Y-92978531D01*
X117830500Y-92078805D01*
X117850185Y-92011766D01*
X117902989Y-91966011D01*
X117972147Y-91956067D01*
X118035703Y-91985092D01*
X118064985Y-92022510D01*
X118142187Y-92174025D01*
X118271752Y-92352358D01*
X118271756Y-92352363D01*
X118427636Y-92508243D01*
X118427641Y-92508247D01*
X118565274Y-92608242D01*
X118605978Y-92637815D01*
X118734375Y-92703237D01*
X118802393Y-92737895D01*
X118802396Y-92737896D01*
X118907221Y-92771955D01*
X119012049Y-92806015D01*
X119229778Y-92840500D01*
X119229779Y-92840500D01*
X119450221Y-92840500D01*
X119450222Y-92840500D01*
X119667951Y-92806015D01*
X119877606Y-92737895D01*
X120074022Y-92637815D01*
X120252365Y-92508242D01*
X120408242Y-92352365D01*
X120537815Y-92174022D01*
X120637895Y-91977606D01*
X120637897Y-91977600D01*
X120657569Y-91917056D01*
X120697006Y-91859380D01*
X120761364Y-91832181D01*
X120830211Y-91844095D01*
X120881687Y-91891339D01*
X120899500Y-91955373D01*
X120899500Y-93242796D01*
X120879815Y-93309835D01*
X120863181Y-93330477D01*
X118410588Y-95783069D01*
X118410588Y-95783070D01*
X118410586Y-95783072D01*
X118366859Y-95843256D01*
X118308768Y-95923211D01*
X118230128Y-96077552D01*
X118176597Y-96242302D01*
X118149500Y-96413389D01*
X118149500Y-98535689D01*
X118129815Y-98602728D01*
X118113181Y-98623370D01*
X118029205Y-98707345D01*
X118029201Y-98707350D01*
X117881132Y-98911151D01*
X117766760Y-99135616D01*
X117688910Y-99375214D01*
X117649500Y-99624038D01*
X117649500Y-99875961D01*
X117688910Y-100124785D01*
X117766760Y-100364383D01*
X117881132Y-100588848D01*
X118029201Y-100792649D01*
X118029205Y-100792654D01*
X118113181Y-100876630D01*
X118146666Y-100937953D01*
X118149500Y-100964311D01*
X118149500Y-102786611D01*
X118176598Y-102957701D01*
X118230127Y-103122445D01*
X118308768Y-103276788D01*
X118410586Y-103416928D01*
X118533072Y-103539414D01*
X118673212Y-103641232D01*
X118827555Y-103719873D01*
X118992299Y-103773402D01*
X119163389Y-103800500D01*
X119163390Y-103800500D01*
X140336610Y-103800500D01*
X140336611Y-103800500D01*
X140507701Y-103773402D01*
X140672445Y-103719873D01*
X140826788Y-103641232D01*
X140966928Y-103539414D01*
X141089414Y-103416928D01*
X141191232Y-103276788D01*
X141269873Y-103122445D01*
X141323402Y-102957701D01*
X141350500Y-102786611D01*
X141350500Y-100964311D01*
X141370185Y-100897272D01*
X141386819Y-100876630D01*
X141470793Y-100792656D01*
X141618870Y-100588845D01*
X141733241Y-100364379D01*
X141811090Y-100124785D01*
X141850500Y-99875962D01*
X141850500Y-99624038D01*
X141811090Y-99375215D01*
X141733241Y-99135621D01*
X141733239Y-99135618D01*
X141733239Y-99135616D01*
X141691747Y-99054184D01*
X141618870Y-98911155D01*
X141550500Y-98817051D01*
X141470798Y-98707350D01*
X141470794Y-98707345D01*
X141292654Y-98529205D01*
X141292649Y-98529201D01*
X141088848Y-98381132D01*
X141088847Y-98381131D01*
X141088845Y-98381130D01*
X140981461Y-98326415D01*
X140864383Y-98266760D01*
X140624785Y-98188910D01*
X140375962Y-98149500D01*
X140124038Y-98149500D01*
X139999626Y-98169205D01*
X139875214Y-98188910D01*
X139635616Y-98266760D01*
X139411151Y-98381132D01*
X139207350Y-98529201D01*
X139207345Y-98529205D01*
X139029205Y-98707345D01*
X139029201Y-98707350D01*
X138881132Y-98911151D01*
X138766760Y-99135616D01*
X138688910Y-99375214D01*
X138649500Y-99624038D01*
X138649500Y-99875961D01*
X138688910Y-100124785D01*
X138766760Y-100364383D01*
X138881132Y-100588848D01*
X139029201Y-100792649D01*
X139029205Y-100792654D01*
X139113181Y-100876630D01*
X139146666Y-100937953D01*
X139149500Y-100964311D01*
X139149500Y-101475500D01*
X139129815Y-101542539D01*
X139077011Y-101588294D01*
X139025500Y-101599500D01*
X130724500Y-101599500D01*
X130657461Y-101579815D01*
X130611706Y-101527011D01*
X130600500Y-101475500D01*
X130600500Y-100964311D01*
X130620185Y-100897272D01*
X130636819Y-100876630D01*
X130720793Y-100792656D01*
X130868870Y-100588845D01*
X130983241Y-100364379D01*
X131061090Y-100124785D01*
X131100500Y-99875962D01*
X131100500Y-99624038D01*
X134149500Y-99624038D01*
X134149500Y-99875961D01*
X134188910Y-100124785D01*
X134266760Y-100364383D01*
X134381132Y-100588848D01*
X134529201Y-100792649D01*
X134529205Y-100792654D01*
X134707345Y-100970794D01*
X134707350Y-100970798D01*
X134885117Y-101099952D01*
X134911155Y-101118870D01*
X135054184Y-101191747D01*
X135135616Y-101233239D01*
X135135618Y-101233239D01*
X135135621Y-101233241D01*
X135375215Y-101311090D01*
X135624038Y-101350500D01*
X135624039Y-101350500D01*
X135875961Y-101350500D01*
X135875962Y-101350500D01*
X136124785Y-101311090D01*
X136364379Y-101233241D01*
X136588845Y-101118870D01*
X136792656Y-100970793D01*
X136970793Y-100792656D01*
X137118870Y-100588845D01*
X137233241Y-100364379D01*
X137311090Y-100124785D01*
X137350500Y-99875962D01*
X137350500Y-99624038D01*
X137311090Y-99375215D01*
X137233241Y-99135621D01*
X137233239Y-99135618D01*
X137233239Y-99135616D01*
X137191747Y-99054184D01*
X137118870Y-98911155D01*
X137050500Y-98817051D01*
X136970798Y-98707350D01*
X136970794Y-98707345D01*
X136836819Y-98573370D01*
X136803334Y-98512047D01*
X136800500Y-98485689D01*
X136800500Y-95160469D01*
X136820185Y-95093430D01*
X136872989Y-95047675D01*
X136942147Y-95037731D01*
X137005703Y-95066756D01*
X137012181Y-95072788D01*
X137087636Y-95148243D01*
X137087641Y-95148247D01*
X137243192Y-95261260D01*
X137265978Y-95277815D01*
X137394375Y-95343237D01*
X137462393Y-95377895D01*
X137462396Y-95377896D01*
X137567221Y-95411955D01*
X137672049Y-95446015D01*
X137889778Y-95480500D01*
X137889779Y-95480500D01*
X138110221Y-95480500D01*
X138110222Y-95480500D01*
X138327951Y-95446015D01*
X138537606Y-95377895D01*
X138734022Y-95277815D01*
X138912365Y-95148242D01*
X139068242Y-94992365D01*
X139197815Y-94814022D01*
X139297895Y-94617606D01*
X139366015Y-94407951D01*
X139400500Y-94190222D01*
X139400500Y-93969778D01*
X139366015Y-93752049D01*
X139297895Y-93542394D01*
X139297895Y-93542393D01*
X139246941Y-93442393D01*
X139197815Y-93345978D01*
X139160166Y-93294158D01*
X139124182Y-93244629D01*
X139100702Y-93178823D01*
X139100500Y-93171744D01*
X139100500Y-92316186D01*
X139120185Y-92249147D01*
X139172989Y-92203392D01*
X139242147Y-92193448D01*
X139305703Y-92222473D01*
X139334985Y-92259891D01*
X139342187Y-92274025D01*
X139471752Y-92452358D01*
X139471756Y-92452363D01*
X139627636Y-92608243D01*
X139627641Y-92608247D01*
X139729298Y-92682104D01*
X139805978Y-92737815D01*
X139934375Y-92803237D01*
X140002393Y-92837895D01*
X140002396Y-92837896D01*
X140107221Y-92871955D01*
X140212049Y-92906015D01*
X140429778Y-92940500D01*
X140429779Y-92940500D01*
X140650221Y-92940500D01*
X140650222Y-92940500D01*
X140867951Y-92906015D01*
X141077606Y-92837895D01*
X141274022Y-92737815D01*
X141452365Y-92608242D01*
X141608242Y-92452365D01*
X141737815Y-92274022D01*
X141837895Y-92077606D01*
X141906015Y-91867951D01*
X141940500Y-91650222D01*
X141940500Y-91429778D01*
X141906015Y-91212049D01*
X141871955Y-91107221D01*
X141837896Y-91002396D01*
X141837895Y-91002393D01*
X141798270Y-90924626D01*
X141737815Y-90805978D01*
X141665160Y-90705976D01*
X141608247Y-90627641D01*
X141608243Y-90627636D01*
X141452363Y-90471756D01*
X141452358Y-90471752D01*
X141274025Y-90342187D01*
X141274024Y-90342186D01*
X141274022Y-90342185D01*
X141170684Y-90289531D01*
X141077606Y-90242104D01*
X141077603Y-90242103D01*
X140867952Y-90173985D01*
X140759086Y-90156742D01*
X140650222Y-90139500D01*
X140429778Y-90139500D01*
X140357201Y-90150995D01*
X140212047Y-90173985D01*
X140002396Y-90242103D01*
X140002393Y-90242104D01*
X139805974Y-90342187D01*
X139627641Y-90471752D01*
X139627636Y-90471756D01*
X139471756Y-90627636D01*
X139471752Y-90627641D01*
X139342184Y-90805978D01*
X139342182Y-90805980D01*
X139334983Y-90820110D01*
X139287008Y-90870905D01*
X139219187Y-90887699D01*
X139153052Y-90865160D01*
X139109602Y-90810444D01*
X139100500Y-90763813D01*
X139100500Y-86007203D01*
X139120185Y-85940164D01*
X139136814Y-85919527D01*
X140006563Y-85049778D01*
X144599500Y-85049778D01*
X144599500Y-85270221D01*
X144633985Y-85487952D01*
X144702103Y-85697603D01*
X144702104Y-85697606D01*
X144802187Y-85894025D01*
X144931752Y-86072358D01*
X144931756Y-86072363D01*
X145087636Y-86228243D01*
X145087641Y-86228247D01*
X145164630Y-86284182D01*
X145265978Y-86357815D01*
X145394375Y-86423237D01*
X145462393Y-86457895D01*
X145462396Y-86457896D01*
X145567221Y-86491955D01*
X145672049Y-86526015D01*
X145889778Y-86560500D01*
X145889779Y-86560500D01*
X146110221Y-86560500D01*
X146110222Y-86560500D01*
X146327951Y-86526015D01*
X146537606Y-86457895D01*
X146734022Y-86357815D01*
X146801278Y-86308950D01*
X146835370Y-86284182D01*
X146901176Y-86260702D01*
X146908255Y-86260500D01*
X152226610Y-86260500D01*
X152226611Y-86260500D01*
X152397701Y-86233402D01*
X152562445Y-86179873D01*
X152716788Y-86101232D01*
X152856928Y-85999414D01*
X154635939Y-84220401D01*
X154697260Y-84186918D01*
X154704173Y-84185618D01*
X154827951Y-84166015D01*
X155037606Y-84097895D01*
X155234022Y-83997815D01*
X155412365Y-83868242D01*
X155568242Y-83712365D01*
X155697815Y-83534022D01*
X155797895Y-83337606D01*
X155866015Y-83127951D01*
X155900500Y-82910222D01*
X155900500Y-82689778D01*
X155866015Y-82472049D01*
X155819196Y-82327952D01*
X155797896Y-82262396D01*
X155797895Y-82262393D01*
X155751860Y-82172047D01*
X155697815Y-82065978D01*
X155622559Y-81962396D01*
X155568247Y-81887641D01*
X155568243Y-81887636D01*
X155412363Y-81731756D01*
X155412358Y-81731752D01*
X155234025Y-81602187D01*
X155234024Y-81602186D01*
X155234022Y-81602185D01*
X155171096Y-81570122D01*
X155037606Y-81502104D01*
X155037603Y-81502103D01*
X154827952Y-81433985D01*
X154719086Y-81416742D01*
X154610222Y-81399500D01*
X154389778Y-81399500D01*
X154338340Y-81407647D01*
X154172047Y-81433985D01*
X153962396Y-81502103D01*
X153962393Y-81502104D01*
X153765974Y-81602187D01*
X153587641Y-81731752D01*
X153587636Y-81731756D01*
X153431756Y-81887636D01*
X153431752Y-81887641D01*
X153302187Y-82065974D01*
X153202104Y-82262393D01*
X153202103Y-82262396D01*
X153133985Y-82472047D01*
X153114387Y-82595779D01*
X153084457Y-82658913D01*
X153079595Y-82664061D01*
X151720477Y-84023181D01*
X151659154Y-84056666D01*
X151632796Y-84059500D01*
X146908255Y-84059500D01*
X146841216Y-84039815D01*
X146835370Y-84035818D01*
X146734025Y-83962187D01*
X146734024Y-83962186D01*
X146734022Y-83962185D01*
X146652021Y-83920403D01*
X146537606Y-83862104D01*
X146537603Y-83862103D01*
X146327952Y-83793985D01*
X146219086Y-83776742D01*
X146110222Y-83759500D01*
X145889778Y-83759500D01*
X145817201Y-83770995D01*
X145672047Y-83793985D01*
X145462396Y-83862103D01*
X145462393Y-83862104D01*
X145265974Y-83962187D01*
X145087641Y-84091752D01*
X145087636Y-84091756D01*
X144931756Y-84247636D01*
X144931752Y-84247641D01*
X144802187Y-84425974D01*
X144702104Y-84622393D01*
X144702103Y-84622396D01*
X144633985Y-84832047D01*
X144599500Y-85049778D01*
X140006563Y-85049778D01*
X141135939Y-83920401D01*
X141197260Y-83886918D01*
X141204173Y-83885618D01*
X141327951Y-83866015D01*
X141537606Y-83797895D01*
X141734022Y-83697815D01*
X141912365Y-83568242D01*
X142068242Y-83412365D01*
X142197815Y-83234022D01*
X142297895Y-83037606D01*
X142366015Y-82827951D01*
X142400500Y-82610222D01*
X142400500Y-82389778D01*
X142366015Y-82172049D01*
X142297895Y-81962394D01*
X142297895Y-81962393D01*
X142259803Y-81887635D01*
X142197815Y-81765978D01*
X142078815Y-81602187D01*
X142068247Y-81587641D01*
X142068243Y-81587636D01*
X141912363Y-81431756D01*
X141912358Y-81431752D01*
X141734025Y-81302187D01*
X141734024Y-81302186D01*
X141734022Y-81302185D01*
X141662955Y-81265974D01*
X141537606Y-81202104D01*
X141537603Y-81202103D01*
X141327952Y-81133985D01*
X141190179Y-81112164D01*
X141110222Y-81099500D01*
X140889778Y-81099500D01*
X140822082Y-81110222D01*
X140672047Y-81133985D01*
X140462396Y-81202103D01*
X140462393Y-81202104D01*
X140265974Y-81302187D01*
X140087641Y-81431752D01*
X140087636Y-81431756D01*
X139931756Y-81587636D01*
X139931752Y-81587641D01*
X139802187Y-81765974D01*
X139702104Y-81962393D01*
X139702103Y-81962396D01*
X139633985Y-82172047D01*
X139614387Y-82295779D01*
X139584457Y-82358913D01*
X139579595Y-82364061D01*
X137283072Y-84660586D01*
X137160588Y-84783069D01*
X137160588Y-84783070D01*
X137160586Y-84783072D01*
X137125002Y-84832049D01*
X137058768Y-84923211D01*
X136980128Y-85077552D01*
X136926597Y-85242302D01*
X136899500Y-85413389D01*
X136899500Y-90459531D01*
X136879815Y-90526570D01*
X136827011Y-90572325D01*
X136757853Y-90582269D01*
X136694297Y-90553244D01*
X136687819Y-90547212D01*
X136612363Y-90471756D01*
X136612358Y-90471752D01*
X136434025Y-90342187D01*
X136434024Y-90342186D01*
X136434022Y-90342185D01*
X136330684Y-90289531D01*
X136237606Y-90242104D01*
X136237603Y-90242103D01*
X136027952Y-90173985D01*
X135919086Y-90156742D01*
X135810222Y-90139500D01*
X135589778Y-90139500D01*
X135517201Y-90150995D01*
X135372047Y-90173985D01*
X135162396Y-90242103D01*
X135162393Y-90242104D01*
X134965974Y-90342187D01*
X134787641Y-90471752D01*
X134787636Y-90471756D01*
X134631756Y-90627636D01*
X134631752Y-90627641D01*
X134502187Y-90805974D01*
X134402104Y-91002393D01*
X134402103Y-91002396D01*
X134333985Y-91212047D01*
X134299500Y-91429778D01*
X134299500Y-91650221D01*
X134333985Y-91867952D01*
X134402103Y-92077603D01*
X134402104Y-92077606D01*
X134475919Y-92222473D01*
X134502185Y-92274022D01*
X134575819Y-92375370D01*
X134599298Y-92441174D01*
X134599500Y-92448254D01*
X134599500Y-98585689D01*
X134579815Y-98652728D01*
X134563181Y-98673370D01*
X134529205Y-98707345D01*
X134529201Y-98707350D01*
X134381132Y-98911151D01*
X134266760Y-99135616D01*
X134188910Y-99375214D01*
X134149500Y-99624038D01*
X131100500Y-99624038D01*
X131061090Y-99375215D01*
X130983241Y-99135621D01*
X130983239Y-99135618D01*
X130983239Y-99135616D01*
X130941747Y-99054184D01*
X130868870Y-98911155D01*
X130800500Y-98817051D01*
X130720798Y-98707350D01*
X130720794Y-98707345D01*
X130542654Y-98529205D01*
X130542649Y-98529201D01*
X130338848Y-98381132D01*
X130338847Y-98381131D01*
X130338845Y-98381130D01*
X130231461Y-98326415D01*
X130114383Y-98266760D01*
X129874785Y-98188910D01*
X129625962Y-98149500D01*
X129374038Y-98149500D01*
X129249626Y-98169205D01*
X129125214Y-98188910D01*
X128885616Y-98266760D01*
X128661151Y-98381132D01*
X128457350Y-98529201D01*
X128457345Y-98529205D01*
X128279205Y-98707345D01*
X128279201Y-98707350D01*
X128131132Y-98911151D01*
X128016760Y-99135616D01*
X127938910Y-99375214D01*
X127899500Y-99624038D01*
X127899500Y-99875961D01*
X127938910Y-100124785D01*
X128016760Y-100364383D01*
X128131132Y-100588848D01*
X128279201Y-100792649D01*
X128279205Y-100792654D01*
X128363181Y-100876630D01*
X128396666Y-100937953D01*
X128399500Y-100964311D01*
X128399500Y-101475500D01*
X128379815Y-101542539D01*
X128327011Y-101588294D01*
X128275500Y-101599500D01*
X120474500Y-101599500D01*
X120407461Y-101579815D01*
X120361706Y-101527011D01*
X120350500Y-101475500D01*
X120350500Y-100964311D01*
X120370185Y-100897272D01*
X120386819Y-100876630D01*
X120470793Y-100792656D01*
X120618870Y-100588845D01*
X120733241Y-100364379D01*
X120811090Y-100124785D01*
X120850500Y-99875962D01*
X120850500Y-99624038D01*
X120811090Y-99375215D01*
X120733241Y-99135621D01*
X120733239Y-99135618D01*
X120733239Y-99135616D01*
X120691747Y-99054184D01*
X120618870Y-98911155D01*
X120550500Y-98817051D01*
X120470798Y-98707350D01*
X120470794Y-98707345D01*
X120386819Y-98623370D01*
X120353334Y-98562047D01*
X120350500Y-98535689D01*
X120350500Y-97007204D01*
X120370185Y-96940165D01*
X120386819Y-96919523D01*
X121523273Y-95783069D01*
X122839414Y-94466928D01*
X122941232Y-94326788D01*
X123019873Y-94172446D01*
X123073402Y-94007701D01*
X123100500Y-93836611D01*
X123100500Y-93663390D01*
X123100500Y-91329778D01*
X123399500Y-91329778D01*
X123399500Y-91550222D01*
X123416742Y-91659086D01*
X123433985Y-91767952D01*
X123502103Y-91977603D01*
X123502104Y-91977606D01*
X123553058Y-92077606D01*
X123602185Y-92174022D01*
X123675819Y-92275370D01*
X123699298Y-92341174D01*
X123699500Y-92348254D01*
X123699500Y-98776761D01*
X123679815Y-98843800D01*
X123675818Y-98849646D01*
X123631132Y-98911151D01*
X123516760Y-99135616D01*
X123438910Y-99375214D01*
X123399500Y-99624038D01*
X123399500Y-99875961D01*
X123438910Y-100124785D01*
X123516760Y-100364383D01*
X123631132Y-100588848D01*
X123779201Y-100792649D01*
X123779205Y-100792654D01*
X123957345Y-100970794D01*
X123957350Y-100970798D01*
X124135117Y-101099952D01*
X124161155Y-101118870D01*
X124304184Y-101191747D01*
X124385616Y-101233239D01*
X124385618Y-101233239D01*
X124385621Y-101233241D01*
X124625215Y-101311090D01*
X124874038Y-101350500D01*
X124874039Y-101350500D01*
X125125961Y-101350500D01*
X125125962Y-101350500D01*
X125374785Y-101311090D01*
X125614379Y-101233241D01*
X125838845Y-101118870D01*
X126042656Y-100970793D01*
X126220793Y-100792656D01*
X126368870Y-100588845D01*
X126483241Y-100364379D01*
X126561090Y-100124785D01*
X126600500Y-99875962D01*
X126600500Y-99624038D01*
X126561090Y-99375215D01*
X126483241Y-99135621D01*
X126483239Y-99135618D01*
X126483239Y-99135616D01*
X126441747Y-99054184D01*
X126368870Y-98911155D01*
X126300500Y-98817051D01*
X126220798Y-98707350D01*
X126220794Y-98707345D01*
X126042655Y-98529206D01*
X125951613Y-98463059D01*
X125908948Y-98407729D01*
X125900500Y-98362742D01*
X125900500Y-95060469D01*
X125920185Y-94993430D01*
X125972989Y-94947675D01*
X126042147Y-94937731D01*
X126105703Y-94966756D01*
X126112181Y-94972788D01*
X126187636Y-95048243D01*
X126187641Y-95048247D01*
X126249831Y-95093430D01*
X126365978Y-95177815D01*
X126494375Y-95243237D01*
X126562393Y-95277895D01*
X126562396Y-95277896D01*
X126667221Y-95311955D01*
X126772049Y-95346015D01*
X126989778Y-95380500D01*
X126989779Y-95380500D01*
X127210221Y-95380500D01*
X127210222Y-95380500D01*
X127427951Y-95346015D01*
X127637606Y-95277895D01*
X127834022Y-95177815D01*
X128012365Y-95048242D01*
X128168242Y-94892365D01*
X128297815Y-94714022D01*
X128397895Y-94517606D01*
X128466015Y-94307951D01*
X128500500Y-94090222D01*
X128500500Y-93869778D01*
X128466015Y-93652049D01*
X128397895Y-93442394D01*
X128397895Y-93442393D01*
X128363237Y-93374375D01*
X128297815Y-93245978D01*
X128270499Y-93208381D01*
X128168247Y-93067641D01*
X128168243Y-93067636D01*
X128012363Y-92911756D01*
X128012358Y-92911752D01*
X127834025Y-92782187D01*
X127834024Y-92782186D01*
X127834022Y-92782185D01*
X127746936Y-92737812D01*
X127637606Y-92682104D01*
X127637603Y-92682103D01*
X127427952Y-92613985D01*
X127319086Y-92596742D01*
X127210222Y-92579500D01*
X126989778Y-92579500D01*
X126917201Y-92590995D01*
X126772047Y-92613985D01*
X126562396Y-92682103D01*
X126562393Y-92682104D01*
X126365974Y-92782187D01*
X126187641Y-92911752D01*
X126187636Y-92911756D01*
X126112181Y-92987212D01*
X126050858Y-93020697D01*
X125981166Y-93015713D01*
X125925233Y-92973841D01*
X125900816Y-92908377D01*
X125900500Y-92899531D01*
X125900500Y-92348254D01*
X125920185Y-92281215D01*
X125924165Y-92275392D01*
X125997815Y-92174022D01*
X126097895Y-91977606D01*
X126166015Y-91767951D01*
X126200500Y-91550222D01*
X126200500Y-91329778D01*
X128239500Y-91329778D01*
X128239500Y-91550222D01*
X128256742Y-91659086D01*
X128273985Y-91767952D01*
X128342103Y-91977603D01*
X128342104Y-91977606D01*
X128442187Y-92174025D01*
X128571752Y-92352358D01*
X128571756Y-92352363D01*
X128727636Y-92508243D01*
X128727641Y-92508247D01*
X128865274Y-92608242D01*
X128905978Y-92637815D01*
X129034375Y-92703237D01*
X129102393Y-92737895D01*
X129102396Y-92737896D01*
X129207221Y-92771955D01*
X129312049Y-92806015D01*
X129529778Y-92840500D01*
X129529779Y-92840500D01*
X129750221Y-92840500D01*
X129750222Y-92840500D01*
X129967951Y-92806015D01*
X130177606Y-92737895D01*
X130374022Y-92637815D01*
X130552365Y-92508242D01*
X130708242Y-92352365D01*
X130837815Y-92174022D01*
X130937895Y-91977606D01*
X131006015Y-91767951D01*
X131040500Y-91550222D01*
X131040500Y-91329778D01*
X131006015Y-91112049D01*
X130970386Y-91002393D01*
X130937896Y-90902396D01*
X130937895Y-90902393D01*
X130895969Y-90820110D01*
X130837815Y-90705978D01*
X130780896Y-90627635D01*
X130708247Y-90527641D01*
X130708243Y-90527636D01*
X130552363Y-90371756D01*
X130552358Y-90371752D01*
X130374025Y-90242187D01*
X130374024Y-90242186D01*
X130374022Y-90242185D01*
X130311096Y-90210122D01*
X130177606Y-90142104D01*
X130177603Y-90142103D01*
X129967952Y-90073985D01*
X129859086Y-90056742D01*
X129750222Y-90039500D01*
X129529778Y-90039500D01*
X129457201Y-90050995D01*
X129312047Y-90073985D01*
X129102396Y-90142103D01*
X129102393Y-90142104D01*
X128905974Y-90242187D01*
X128727641Y-90371752D01*
X128727636Y-90371756D01*
X128571756Y-90527636D01*
X128571752Y-90527641D01*
X128442187Y-90705974D01*
X128342104Y-90902393D01*
X128342103Y-90902396D01*
X128273985Y-91112047D01*
X128239500Y-91329778D01*
X126200500Y-91329778D01*
X126166015Y-91112049D01*
X126130386Y-91002393D01*
X126097896Y-90902396D01*
X126097895Y-90902393D01*
X126055969Y-90820110D01*
X125997815Y-90705978D01*
X125940896Y-90627635D01*
X125868247Y-90527641D01*
X125868243Y-90527636D01*
X125712363Y-90371756D01*
X125712358Y-90371752D01*
X125534025Y-90242187D01*
X125534024Y-90242186D01*
X125534022Y-90242185D01*
X125471096Y-90210122D01*
X125337606Y-90142104D01*
X125337603Y-90142103D01*
X125127952Y-90073985D01*
X125019086Y-90056742D01*
X124910222Y-90039500D01*
X124689778Y-90039500D01*
X124617201Y-90050995D01*
X124472047Y-90073985D01*
X124262396Y-90142103D01*
X124262393Y-90142104D01*
X124065974Y-90242187D01*
X123887641Y-90371752D01*
X123887636Y-90371756D01*
X123731756Y-90527636D01*
X123731752Y-90527641D01*
X123602187Y-90705974D01*
X123502104Y-90902393D01*
X123502103Y-90902396D01*
X123433985Y-91112047D01*
X123399500Y-91329778D01*
X123100500Y-91329778D01*
X123100500Y-89288389D01*
X123073402Y-89117299D01*
X123019873Y-88952555D01*
X122941232Y-88798212D01*
X122839414Y-88658072D01*
X122716928Y-88535586D01*
X120406819Y-86225477D01*
X120373334Y-86164154D01*
X120370500Y-86137796D01*
X120370500Y-82908254D01*
X120376496Y-82887833D01*
X120377711Y-82866585D01*
X120389041Y-82845110D01*
X120390185Y-82841215D01*
X120394160Y-82835399D01*
X120439684Y-82772740D01*
X120495010Y-82730078D01*
X120564623Y-82724099D01*
X120626419Y-82756704D01*
X120640317Y-82772744D01*
X120741752Y-82912358D01*
X120741756Y-82912363D01*
X120897636Y-83068243D01*
X120897641Y-83068247D01*
X120979819Y-83127952D01*
X121075978Y-83197815D01*
X121204375Y-83263237D01*
X121272393Y-83297895D01*
X121272396Y-83297896D01*
X121377221Y-83331955D01*
X121482049Y-83366015D01*
X121699778Y-83400500D01*
X121699779Y-83400500D01*
X121920221Y-83400500D01*
X121920222Y-83400500D01*
X122137951Y-83366015D01*
X122347606Y-83297895D01*
X122544022Y-83197815D01*
X122722365Y-83068242D01*
X122878242Y-82912365D01*
X123007815Y-82734022D01*
X123107895Y-82537606D01*
X123176015Y-82327951D01*
X123210500Y-82110222D01*
X123210500Y-81889778D01*
X123176015Y-81672049D01*
X123141955Y-81567221D01*
X123107896Y-81462396D01*
X123107895Y-81462393D01*
X123073237Y-81394375D01*
X123007815Y-81265978D01*
X122979681Y-81227255D01*
X122878247Y-81087641D01*
X122878243Y-81087636D01*
X122722363Y-80931756D01*
X122722358Y-80931752D01*
X122544025Y-80802187D01*
X122544024Y-80802186D01*
X122544022Y-80802185D01*
X122428630Y-80743389D01*
X122347606Y-80702104D01*
X122347603Y-80702103D01*
X122163947Y-80642431D01*
X122106272Y-80602994D01*
X122079073Y-80538635D01*
X122090987Y-80469789D01*
X122138231Y-80418313D01*
X122202265Y-80400500D01*
X123792796Y-80400500D01*
X123859835Y-80420185D01*
X123880477Y-80436819D01*
X124579595Y-81135937D01*
X124613080Y-81197260D01*
X124614387Y-81204219D01*
X124633985Y-81327952D01*
X124702103Y-81537603D01*
X124702104Y-81537606D01*
X124770122Y-81671096D01*
X124801031Y-81731758D01*
X124802187Y-81734025D01*
X124931752Y-81912358D01*
X124931756Y-81912363D01*
X125087636Y-82068243D01*
X125087641Y-82068247D01*
X125230511Y-82172047D01*
X125265978Y-82197815D01*
X125392718Y-82262393D01*
X125462393Y-82297895D01*
X125462396Y-82297896D01*
X125554898Y-82327951D01*
X125672049Y-82366015D01*
X125889778Y-82400500D01*
X125889779Y-82400500D01*
X126110221Y-82400500D01*
X126110222Y-82400500D01*
X126327951Y-82366015D01*
X126537606Y-82297895D01*
X126734022Y-82197815D01*
X126912365Y-82068242D01*
X127068242Y-81912365D01*
X127197815Y-81734022D01*
X127297895Y-81537606D01*
X127366015Y-81327951D01*
X127400500Y-81110222D01*
X127400500Y-80889778D01*
X134759500Y-80889778D01*
X134759500Y-81110221D01*
X134793985Y-81327952D01*
X134862103Y-81537603D01*
X134862104Y-81537606D01*
X134930122Y-81671096D01*
X134961031Y-81731758D01*
X134962187Y-81734025D01*
X135091752Y-81912358D01*
X135091756Y-81912363D01*
X135247636Y-82068243D01*
X135247641Y-82068247D01*
X135390511Y-82172047D01*
X135425978Y-82197815D01*
X135552718Y-82262393D01*
X135622393Y-82297895D01*
X135622396Y-82297896D01*
X135714898Y-82327951D01*
X135832049Y-82366015D01*
X136049778Y-82400500D01*
X136049779Y-82400500D01*
X136270221Y-82400500D01*
X136270222Y-82400500D01*
X136487951Y-82366015D01*
X136697606Y-82297895D01*
X136894022Y-82197815D01*
X137072365Y-82068242D01*
X137228242Y-81912365D01*
X137357815Y-81734022D01*
X137457895Y-81537606D01*
X137526015Y-81327951D01*
X137560500Y-81110222D01*
X137560500Y-80889778D01*
X137526015Y-80672049D01*
X137457895Y-80462394D01*
X137457895Y-80462393D01*
X137423237Y-80394375D01*
X137357815Y-80265978D01*
X137246723Y-80113072D01*
X137228247Y-80087641D01*
X137228243Y-80087636D01*
X137072363Y-79931756D01*
X137072358Y-79931752D01*
X136894025Y-79802187D01*
X136894024Y-79802186D01*
X136894022Y-79802185D01*
X136831096Y-79770122D01*
X136697606Y-79702104D01*
X136697603Y-79702103D01*
X136487952Y-79633985D01*
X136379086Y-79616742D01*
X136270222Y-79599500D01*
X136049778Y-79599500D01*
X135995575Y-79608085D01*
X135832047Y-79633985D01*
X135622396Y-79702103D01*
X135622393Y-79702104D01*
X135425974Y-79802187D01*
X135247641Y-79931752D01*
X135247636Y-79931756D01*
X135091756Y-80087636D01*
X135091752Y-80087641D01*
X134962187Y-80265974D01*
X134862104Y-80462393D01*
X134862103Y-80462396D01*
X134793985Y-80672047D01*
X134759500Y-80889778D01*
X127400500Y-80889778D01*
X127366015Y-80672049D01*
X127297895Y-80462394D01*
X127297895Y-80462393D01*
X127263237Y-80394375D01*
X127197815Y-80265978D01*
X127086723Y-80113072D01*
X127068247Y-80087641D01*
X127068243Y-80087636D01*
X126912363Y-79931756D01*
X126912358Y-79931752D01*
X126734025Y-79802187D01*
X126734024Y-79802186D01*
X126734022Y-79802185D01*
X126671096Y-79770122D01*
X126537606Y-79702104D01*
X126537603Y-79702103D01*
X126327952Y-79633985D01*
X126204219Y-79614387D01*
X126141085Y-79584457D01*
X126135937Y-79579595D01*
X125016930Y-78460588D01*
X125016928Y-78460586D01*
X124876788Y-78358768D01*
X124722445Y-78280127D01*
X124557701Y-78226598D01*
X124557699Y-78226597D01*
X124557698Y-78226597D01*
X124419783Y-78204754D01*
X124386611Y-78199500D01*
X120886611Y-78199500D01*
X120713389Y-78199500D01*
X120680217Y-78204754D01*
X120542302Y-78226597D01*
X120542299Y-78226598D01*
X120388392Y-78276606D01*
X120377552Y-78280128D01*
X120223211Y-78358768D01*
X120213237Y-78366015D01*
X120083072Y-78460586D01*
X120083070Y-78460588D01*
X120083069Y-78460588D01*
X118430588Y-80113069D01*
X118430588Y-80113070D01*
X118430586Y-80113072D01*
X118386859Y-80173256D01*
X118328768Y-80253211D01*
X118250128Y-80407552D01*
X118250127Y-80407554D01*
X118250127Y-80407555D01*
X118246023Y-80420185D01*
X118196597Y-80572302D01*
X118169500Y-80743389D01*
X118169500Y-81091744D01*
X118163503Y-81112164D01*
X118162289Y-81133414D01*
X118150959Y-81154884D01*
X118149815Y-81158783D01*
X118145818Y-81164629D01*
X118100318Y-81227255D01*
X118044989Y-81269921D01*
X117975375Y-81275900D01*
X117913580Y-81243295D01*
X117899682Y-81227255D01*
X117854182Y-81164629D01*
X117830702Y-81098822D01*
X117830500Y-81091744D01*
X117830500Y-79577204D01*
X117850185Y-79510165D01*
X117866819Y-79489523D01*
X118955842Y-78400500D01*
X120109414Y-77246928D01*
X120211232Y-77106788D01*
X120289873Y-76952446D01*
X120343402Y-76787701D01*
X120349373Y-76750000D01*
X128473391Y-76750000D01*
X129434314Y-76750000D01*
X129429920Y-76754394D01*
X129377259Y-76845606D01*
X129350000Y-76947339D01*
X129350000Y-77052661D01*
X129377259Y-77154394D01*
X129429920Y-77245606D01*
X129434314Y-77250000D01*
X128473391Y-77250000D01*
X128482009Y-77304413D01*
X128545244Y-77499029D01*
X128638140Y-77681349D01*
X128758417Y-77846894D01*
X128758417Y-77846895D01*
X128903104Y-77991582D01*
X129068650Y-78111859D01*
X129250968Y-78204754D01*
X129445578Y-78267988D01*
X129500000Y-78276607D01*
X129500000Y-77315686D01*
X129504394Y-77320080D01*
X129595606Y-77372741D01*
X129697339Y-77400000D01*
X129802661Y-77400000D01*
X129904394Y-77372741D01*
X129995606Y-77320080D01*
X130000000Y-77315686D01*
X130000000Y-78276606D01*
X130054421Y-78267988D01*
X130249031Y-78204754D01*
X130431349Y-78111859D01*
X130596894Y-77991582D01*
X130596895Y-77991582D01*
X130741582Y-77846895D01*
X130741587Y-77846889D01*
X130862528Y-77680429D01*
X130917858Y-77637763D01*
X130987471Y-77631784D01*
X131049266Y-77664390D01*
X131073331Y-77697019D01*
X131092187Y-77734025D01*
X131221752Y-77912358D01*
X131221756Y-77912363D01*
X131377636Y-78068243D01*
X131377641Y-78068247D01*
X131533192Y-78181260D01*
X131555978Y-78197815D01*
X131684375Y-78263237D01*
X131752393Y-78297895D01*
X131752396Y-78297896D01*
X131857221Y-78331955D01*
X131962049Y-78366015D01*
X132179778Y-78400500D01*
X132179779Y-78400500D01*
X132400221Y-78400500D01*
X132400222Y-78400500D01*
X132617951Y-78366015D01*
X132827606Y-78297895D01*
X133024022Y-78197815D01*
X133202365Y-78068242D01*
X133358242Y-77912365D01*
X133487815Y-77734022D01*
X133587895Y-77537606D01*
X133656015Y-77327951D01*
X133690500Y-77110222D01*
X133690500Y-76889778D01*
X133656015Y-76672049D01*
X133600114Y-76500000D01*
X133587896Y-76462396D01*
X133587895Y-76462393D01*
X133532551Y-76353777D01*
X133487815Y-76265978D01*
X133438290Y-76197812D01*
X133370932Y-76105100D01*
X133358247Y-76087641D01*
X133358243Y-76087636D01*
X133202363Y-75931756D01*
X133202358Y-75931752D01*
X133024025Y-75802187D01*
X133024024Y-75802186D01*
X133024022Y-75802185D01*
X132961096Y-75770122D01*
X132827606Y-75702104D01*
X132827603Y-75702103D01*
X132617952Y-75633985D01*
X132494019Y-75614356D01*
X132400222Y-75599500D01*
X132179778Y-75599500D01*
X132107201Y-75610995D01*
X131962047Y-75633985D01*
X131752396Y-75702103D01*
X131752393Y-75702104D01*
X131555974Y-75802187D01*
X131377641Y-75931752D01*
X131377636Y-75931756D01*
X131221756Y-76087636D01*
X131221752Y-76087641D01*
X131092185Y-76265976D01*
X131073330Y-76302981D01*
X131025355Y-76353777D01*
X130957534Y-76370571D01*
X130891399Y-76348033D01*
X130862528Y-76319571D01*
X130741582Y-76153104D01*
X130596895Y-76008417D01*
X130431349Y-75888140D01*
X130249029Y-75795244D01*
X130054413Y-75732009D01*
X130000000Y-75723390D01*
X130000000Y-76684314D01*
X129995606Y-76679920D01*
X129904394Y-76627259D01*
X129802661Y-76600000D01*
X129697339Y-76600000D01*
X129595606Y-76627259D01*
X129504394Y-76679920D01*
X129500000Y-76684314D01*
X129500000Y-75723390D01*
X129445586Y-75732009D01*
X129250970Y-75795244D01*
X129068650Y-75888140D01*
X128903105Y-76008417D01*
X128903104Y-76008417D01*
X128758417Y-76153104D01*
X128758417Y-76153105D01*
X128638140Y-76318650D01*
X128545244Y-76500970D01*
X128482009Y-76695586D01*
X128473391Y-76750000D01*
X120349373Y-76750000D01*
X120370500Y-76616611D01*
X120370500Y-76443390D01*
X120370500Y-75353771D01*
X120390185Y-75286732D01*
X120442989Y-75240977D01*
X120512147Y-75231033D01*
X120575703Y-75260058D01*
X120600039Y-75288675D01*
X120667682Y-75398343D01*
X120791654Y-75522315D01*
X120940875Y-75614356D01*
X120940880Y-75614358D01*
X121107302Y-75669505D01*
X121107309Y-75669506D01*
X121210019Y-75679999D01*
X121559999Y-75679999D01*
X121560000Y-75679998D01*
X121560000Y-74695686D01*
X121564394Y-74700080D01*
X121655606Y-74752741D01*
X121757339Y-74780000D01*
X121862661Y-74780000D01*
X121964394Y-74752741D01*
X122055606Y-74700080D01*
X122060000Y-74695686D01*
X122060000Y-75679999D01*
X122409972Y-75679999D01*
X122409986Y-75679998D01*
X122512697Y-75669505D01*
X122679119Y-75614358D01*
X122679124Y-75614356D01*
X122828345Y-75522315D01*
X122952315Y-75398345D01*
X123044356Y-75249124D01*
X123044358Y-75249119D01*
X123099505Y-75082697D01*
X123099506Y-75082690D01*
X123109999Y-74979986D01*
X123110000Y-74979973D01*
X123110000Y-74630000D01*
X122125686Y-74630000D01*
X122130080Y-74625606D01*
X122182741Y-74534394D01*
X122210000Y-74432661D01*
X122210000Y-74327339D01*
X122182741Y-74225606D01*
X122130080Y-74134394D01*
X122125686Y-74130000D01*
X123109999Y-74130000D01*
X123109999Y-73780028D01*
X123109998Y-73780010D01*
X123105717Y-73738101D01*
X123118487Y-73669408D01*
X123166368Y-73618524D01*
X123229075Y-73601500D01*
X140364717Y-73601500D01*
X140431756Y-73621185D01*
X140477511Y-73673989D01*
X140487455Y-73743147D01*
X140458430Y-73806703D01*
X140421012Y-73835985D01*
X140318644Y-73888143D01*
X140274077Y-73920523D01*
X140274077Y-73920524D01*
X140953554Y-74600000D01*
X140947339Y-74600000D01*
X140845606Y-74627259D01*
X140754394Y-74679920D01*
X140679920Y-74754394D01*
X140627259Y-74845606D01*
X140600000Y-74947339D01*
X140600000Y-74953553D01*
X139920524Y-74274077D01*
X139920523Y-74274077D01*
X139888143Y-74318644D01*
X139795244Y-74500968D01*
X139732009Y-74695582D01*
X139700000Y-74897682D01*
X139700000Y-75102317D01*
X139732009Y-75304417D01*
X139795244Y-75499031D01*
X139888141Y-75681350D01*
X139888147Y-75681359D01*
X139920523Y-75725921D01*
X139920524Y-75725922D01*
X140600000Y-75046446D01*
X140600000Y-75052661D01*
X140627259Y-75154394D01*
X140679920Y-75245606D01*
X140754394Y-75320080D01*
X140845606Y-75372741D01*
X140947339Y-75400000D01*
X140953553Y-75400000D01*
X140274076Y-76079474D01*
X140318650Y-76111859D01*
X140500968Y-76204755D01*
X140695582Y-76267990D01*
X140897683Y-76300000D01*
X141102317Y-76300000D01*
X141304417Y-76267990D01*
X141499031Y-76204755D01*
X141681349Y-76111859D01*
X141725921Y-76079474D01*
X141046447Y-75400000D01*
X141052661Y-75400000D01*
X141154394Y-75372741D01*
X141245606Y-75320080D01*
X141320080Y-75245606D01*
X141372741Y-75154394D01*
X141400000Y-75052661D01*
X141400000Y-75046447D01*
X142079474Y-75725921D01*
X142111859Y-75681349D01*
X142204755Y-75499031D01*
X142267990Y-75304417D01*
X142300000Y-75102317D01*
X142300000Y-74897682D01*
X142267990Y-74695582D01*
X142204755Y-74500968D01*
X142111859Y-74318650D01*
X142079474Y-74274077D01*
X142079474Y-74274076D01*
X141400000Y-74953551D01*
X141400000Y-74947339D01*
X141372741Y-74845606D01*
X141320080Y-74754394D01*
X141245606Y-74679920D01*
X141154394Y-74627259D01*
X141052661Y-74600000D01*
X141046446Y-74600000D01*
X141725922Y-73920524D01*
X141725921Y-73920523D01*
X141681359Y-73888147D01*
X141681350Y-73888141D01*
X141578988Y-73835985D01*
X141528192Y-73788010D01*
X141511397Y-73720189D01*
X141533934Y-73654054D01*
X141588650Y-73610603D01*
X141635283Y-73601500D01*
X144093796Y-73601500D01*
X144160835Y-73621185D01*
X144181477Y-73637819D01*
X144740995Y-74197337D01*
X144774480Y-74258660D01*
X144769496Y-74328352D01*
X144763799Y-74341313D01*
X144702104Y-74462393D01*
X144702103Y-74462396D01*
X144633985Y-74672047D01*
X144599500Y-74889778D01*
X144599500Y-75110221D01*
X144633985Y-75327952D01*
X144702103Y-75537603D01*
X144702104Y-75537606D01*
X144751213Y-75633985D01*
X144801159Y-75732009D01*
X144802187Y-75734025D01*
X144931752Y-75912358D01*
X144931756Y-75912363D01*
X145087636Y-76068243D01*
X145087641Y-76068247D01*
X145243192Y-76181260D01*
X145265978Y-76197815D01*
X145394375Y-76263237D01*
X145462393Y-76297895D01*
X145462396Y-76297896D01*
X145567221Y-76331955D01*
X145672049Y-76366015D01*
X145889778Y-76400500D01*
X145889779Y-76400500D01*
X146110221Y-76400500D01*
X146110222Y-76400500D01*
X146327951Y-76366015D01*
X146537606Y-76297895D01*
X146734022Y-76197815D01*
X146779684Y-76164639D01*
X146824752Y-76131897D01*
X146912359Y-76068247D01*
X146912361Y-76068244D01*
X146912365Y-76068242D01*
X147068242Y-75912365D01*
X147197815Y-75734022D01*
X147297895Y-75537606D01*
X147366015Y-75327951D01*
X147400500Y-75110222D01*
X147400500Y-75097682D01*
X153200000Y-75097682D01*
X153200000Y-75302317D01*
X153232009Y-75504417D01*
X153295244Y-75699031D01*
X153388141Y-75881350D01*
X153388147Y-75881359D01*
X153420523Y-75925921D01*
X153420524Y-75925922D01*
X154100000Y-75246446D01*
X154100000Y-75252661D01*
X154127259Y-75354394D01*
X154179920Y-75445606D01*
X154254394Y-75520080D01*
X154345606Y-75572741D01*
X154447339Y-75600000D01*
X154453553Y-75600000D01*
X153774076Y-76279474D01*
X153818650Y-76311859D01*
X154000968Y-76404755D01*
X154195582Y-76467990D01*
X154397683Y-76500000D01*
X154602317Y-76500000D01*
X154804417Y-76467990D01*
X154999031Y-76404755D01*
X155181349Y-76311859D01*
X155225921Y-76279474D01*
X154546447Y-75600000D01*
X154552661Y-75600000D01*
X154654394Y-75572741D01*
X154745606Y-75520080D01*
X154820080Y-75445606D01*
X154872741Y-75354394D01*
X154900000Y-75252661D01*
X154900000Y-75246448D01*
X155579474Y-75925922D01*
X155579474Y-75925921D01*
X155611859Y-75881349D01*
X155704755Y-75699031D01*
X155767990Y-75504417D01*
X155800000Y-75302317D01*
X155800000Y-75097682D01*
X155767990Y-74895582D01*
X155704755Y-74700968D01*
X155611859Y-74518650D01*
X155579474Y-74474077D01*
X155579474Y-74474076D01*
X154900000Y-75153551D01*
X154900000Y-75147339D01*
X154872741Y-75045606D01*
X154820080Y-74954394D01*
X154745606Y-74879920D01*
X154654394Y-74827259D01*
X154552661Y-74800000D01*
X154546446Y-74800000D01*
X155225922Y-74120524D01*
X155225921Y-74120523D01*
X155181359Y-74088147D01*
X155181350Y-74088141D01*
X154999031Y-73995244D01*
X154804417Y-73932009D01*
X154602317Y-73900000D01*
X154397683Y-73900000D01*
X154195582Y-73932009D01*
X154000968Y-73995244D01*
X153818644Y-74088143D01*
X153774077Y-74120523D01*
X153774077Y-74120524D01*
X154453554Y-74800000D01*
X154447339Y-74800000D01*
X154345606Y-74827259D01*
X154254394Y-74879920D01*
X154179920Y-74954394D01*
X154127259Y-75045606D01*
X154100000Y-75147339D01*
X154100000Y-75153553D01*
X153420524Y-74474077D01*
X153420523Y-74474077D01*
X153388143Y-74518644D01*
X153295244Y-74700968D01*
X153232009Y-74895582D01*
X153200000Y-75097682D01*
X147400500Y-75097682D01*
X147400500Y-74889778D01*
X147366015Y-74672049D01*
X147321289Y-74534394D01*
X147297896Y-74462396D01*
X147297895Y-74462393D01*
X147263237Y-74394375D01*
X147197815Y-74265978D01*
X147189113Y-74254000D01*
X147179427Y-74240668D01*
X147124182Y-74164629D01*
X147100702Y-74098822D01*
X147100500Y-74091744D01*
X147100500Y-73813389D01*
X147089375Y-73743147D01*
X147073402Y-73642299D01*
X147019873Y-73477555D01*
X146941232Y-73323212D01*
X146839414Y-73183072D01*
X146716928Y-73060586D01*
X145868523Y-72212181D01*
X145835038Y-72150858D01*
X145840022Y-72081166D01*
X145881894Y-72025233D01*
X145947358Y-72000816D01*
X145956204Y-72000500D01*
X160876000Y-72000500D01*
X160943039Y-72020185D01*
X160988794Y-72072989D01*
X161000000Y-72124500D01*
X161000000Y-108275500D01*
X160980315Y-108342539D01*
X160927511Y-108388294D01*
X160876000Y-108399500D01*
X111124500Y-108399500D01*
X111057461Y-108379815D01*
X111011706Y-108327011D01*
X111000500Y-108275500D01*
X111000500Y-106124038D01*
X113149500Y-106124038D01*
X113149500Y-106375961D01*
X113188910Y-106624785D01*
X113266760Y-106864383D01*
X113381132Y-107088848D01*
X113529201Y-107292649D01*
X113529205Y-107292654D01*
X113707345Y-107470794D01*
X113707350Y-107470798D01*
X113885117Y-107599952D01*
X113911155Y-107618870D01*
X114054184Y-107691747D01*
X114135616Y-107733239D01*
X114135618Y-107733239D01*
X114135621Y-107733241D01*
X114375215Y-107811090D01*
X114624038Y-107850500D01*
X114624039Y-107850500D01*
X114875961Y-107850500D01*
X114875962Y-107850500D01*
X115124785Y-107811090D01*
X115364379Y-107733241D01*
X115588845Y-107618870D01*
X115792656Y-107470793D01*
X115970793Y-107292656D01*
X116118870Y-107088845D01*
X116233241Y-106864379D01*
X116311090Y-106624785D01*
X116350500Y-106375962D01*
X116350500Y-106124038D01*
X117649500Y-106124038D01*
X117649500Y-106375961D01*
X117688910Y-106624785D01*
X117766760Y-106864383D01*
X117881132Y-107088848D01*
X118029201Y-107292649D01*
X118029205Y-107292654D01*
X118207345Y-107470794D01*
X118207350Y-107470798D01*
X118385117Y-107599952D01*
X118411155Y-107618870D01*
X118554184Y-107691747D01*
X118635616Y-107733239D01*
X118635618Y-107733239D01*
X118635621Y-107733241D01*
X118875215Y-107811090D01*
X119124038Y-107850500D01*
X119124039Y-107850500D01*
X119375961Y-107850500D01*
X119375962Y-107850500D01*
X119624785Y-107811090D01*
X119864379Y-107733241D01*
X120088845Y-107618870D01*
X120292656Y-107470793D01*
X120470793Y-107292656D01*
X120618870Y-107088845D01*
X120733241Y-106864379D01*
X120811090Y-106624785D01*
X120850500Y-106375962D01*
X120850500Y-106124038D01*
X123399500Y-106124038D01*
X123399500Y-106375961D01*
X123438910Y-106624785D01*
X123516760Y-106864383D01*
X123631132Y-107088848D01*
X123779201Y-107292649D01*
X123779205Y-107292654D01*
X123957345Y-107470794D01*
X123957350Y-107470798D01*
X124135117Y-107599952D01*
X124161155Y-107618870D01*
X124304184Y-107691747D01*
X124385616Y-107733239D01*
X124385618Y-107733239D01*
X124385621Y-107733241D01*
X124625215Y-107811090D01*
X124874038Y-107850500D01*
X124874039Y-107850500D01*
X125125961Y-107850500D01*
X125125962Y-107850500D01*
X125374785Y-107811090D01*
X125614379Y-107733241D01*
X125838845Y-107618870D01*
X126042656Y-107470793D01*
X126220793Y-107292656D01*
X126368870Y-107088845D01*
X126483241Y-106864379D01*
X126561090Y-106624785D01*
X126600500Y-106375962D01*
X126600500Y-106124038D01*
X127899500Y-106124038D01*
X127899500Y-106375961D01*
X127938910Y-106624785D01*
X128016760Y-106864383D01*
X128131132Y-107088848D01*
X128279201Y-107292649D01*
X128279205Y-107292654D01*
X128457345Y-107470794D01*
X128457350Y-107470798D01*
X128635117Y-107599952D01*
X128661155Y-107618870D01*
X128804184Y-107691747D01*
X128885616Y-107733239D01*
X128885618Y-107733239D01*
X128885621Y-107733241D01*
X129125215Y-107811090D01*
X129374038Y-107850500D01*
X129374039Y-107850500D01*
X129625961Y-107850500D01*
X129625962Y-107850500D01*
X129874785Y-107811090D01*
X130114379Y-107733241D01*
X130338845Y-107618870D01*
X130542656Y-107470793D01*
X130720793Y-107292656D01*
X130868870Y-107088845D01*
X130983241Y-106864379D01*
X131061090Y-106624785D01*
X131100500Y-106375962D01*
X131100500Y-106124038D01*
X134149500Y-106124038D01*
X134149500Y-106375961D01*
X134188910Y-106624785D01*
X134266760Y-106864383D01*
X134381132Y-107088848D01*
X134529201Y-107292649D01*
X134529205Y-107292654D01*
X134707345Y-107470794D01*
X134707350Y-107470798D01*
X134885117Y-107599952D01*
X134911155Y-107618870D01*
X135054184Y-107691747D01*
X135135616Y-107733239D01*
X135135618Y-107733239D01*
X135135621Y-107733241D01*
X135375215Y-107811090D01*
X135624038Y-107850500D01*
X135624039Y-107850500D01*
X135875961Y-107850500D01*
X135875962Y-107850500D01*
X136124785Y-107811090D01*
X136364379Y-107733241D01*
X136588845Y-107618870D01*
X136792656Y-107470793D01*
X136970793Y-107292656D01*
X137118870Y-107088845D01*
X137233241Y-106864379D01*
X137311090Y-106624785D01*
X137350500Y-106375962D01*
X137350500Y-106124038D01*
X138649500Y-106124038D01*
X138649500Y-106375961D01*
X138688910Y-106624785D01*
X138766760Y-106864383D01*
X138881132Y-107088848D01*
X139029201Y-107292649D01*
X139029205Y-107292654D01*
X139207345Y-107470794D01*
X139207350Y-107470798D01*
X139385117Y-107599952D01*
X139411155Y-107618870D01*
X139554184Y-107691747D01*
X139635616Y-107733239D01*
X139635618Y-107733239D01*
X139635621Y-107733241D01*
X139875215Y-107811090D01*
X140124038Y-107850500D01*
X140124039Y-107850500D01*
X140375961Y-107850500D01*
X140375962Y-107850500D01*
X140624785Y-107811090D01*
X140864379Y-107733241D01*
X141088845Y-107618870D01*
X141292656Y-107470793D01*
X141470793Y-107292656D01*
X141618870Y-107088845D01*
X141733241Y-106864379D01*
X141811090Y-106624785D01*
X141850500Y-106375962D01*
X141850500Y-106124038D01*
X141811090Y-105875215D01*
X141733241Y-105635621D01*
X141733239Y-105635618D01*
X141733239Y-105635616D01*
X141691747Y-105554184D01*
X141618870Y-105411155D01*
X141599952Y-105385117D01*
X141470798Y-105207350D01*
X141470794Y-105207345D01*
X141292654Y-105029205D01*
X141292649Y-105029201D01*
X141088848Y-104881132D01*
X141088847Y-104881131D01*
X141088845Y-104881130D01*
X141018747Y-104845413D01*
X140864383Y-104766760D01*
X140624785Y-104688910D01*
X140375962Y-104649500D01*
X140124038Y-104649500D01*
X139999626Y-104669205D01*
X139875214Y-104688910D01*
X139635616Y-104766760D01*
X139411151Y-104881132D01*
X139207350Y-105029201D01*
X139207345Y-105029205D01*
X139029205Y-105207345D01*
X139029201Y-105207350D01*
X138881132Y-105411151D01*
X138766760Y-105635616D01*
X138688910Y-105875214D01*
X138649500Y-106124038D01*
X137350500Y-106124038D01*
X137311090Y-105875215D01*
X137233241Y-105635621D01*
X137233239Y-105635618D01*
X137233239Y-105635616D01*
X137191747Y-105554184D01*
X137118870Y-105411155D01*
X137099952Y-105385117D01*
X136970798Y-105207350D01*
X136970794Y-105207345D01*
X136792654Y-105029205D01*
X136792649Y-105029201D01*
X136588848Y-104881132D01*
X136588847Y-104881131D01*
X136588845Y-104881130D01*
X136518747Y-104845413D01*
X136364383Y-104766760D01*
X136124785Y-104688910D01*
X135875962Y-104649500D01*
X135624038Y-104649500D01*
X135499626Y-104669205D01*
X135375214Y-104688910D01*
X135135616Y-104766760D01*
X134911151Y-104881132D01*
X134707350Y-105029201D01*
X134707345Y-105029205D01*
X134529205Y-105207345D01*
X134529201Y-105207350D01*
X134381132Y-105411151D01*
X134266760Y-105635616D01*
X134188910Y-105875214D01*
X134149500Y-106124038D01*
X131100500Y-106124038D01*
X131061090Y-105875215D01*
X130983241Y-105635621D01*
X130983239Y-105635618D01*
X130983239Y-105635616D01*
X130941747Y-105554184D01*
X130868870Y-105411155D01*
X130849952Y-105385117D01*
X130720798Y-105207350D01*
X130720794Y-105207345D01*
X130542654Y-105029205D01*
X130542649Y-105029201D01*
X130338848Y-104881132D01*
X130338847Y-104881131D01*
X130338845Y-104881130D01*
X130268747Y-104845413D01*
X130114383Y-104766760D01*
X129874785Y-104688910D01*
X129625962Y-104649500D01*
X129374038Y-104649500D01*
X129249626Y-104669205D01*
X129125214Y-104688910D01*
X128885616Y-104766760D01*
X128661151Y-104881132D01*
X128457350Y-105029201D01*
X128457345Y-105029205D01*
X128279205Y-105207345D01*
X128279201Y-105207350D01*
X128131132Y-105411151D01*
X128016760Y-105635616D01*
X127938910Y-105875214D01*
X127899500Y-106124038D01*
X126600500Y-106124038D01*
X126561090Y-105875215D01*
X126483241Y-105635621D01*
X126483239Y-105635618D01*
X126483239Y-105635616D01*
X126441747Y-105554184D01*
X126368870Y-105411155D01*
X126349952Y-105385117D01*
X126220798Y-105207350D01*
X126220794Y-105207345D01*
X126042654Y-105029205D01*
X126042649Y-105029201D01*
X125838848Y-104881132D01*
X125838847Y-104881131D01*
X125838845Y-104881130D01*
X125768747Y-104845413D01*
X125614383Y-104766760D01*
X125374785Y-104688910D01*
X125125962Y-104649500D01*
X124874038Y-104649500D01*
X124749626Y-104669205D01*
X124625214Y-104688910D01*
X124385616Y-104766760D01*
X124161151Y-104881132D01*
X123957350Y-105029201D01*
X123957345Y-105029205D01*
X123779205Y-105207345D01*
X123779201Y-105207350D01*
X123631132Y-105411151D01*
X123516760Y-105635616D01*
X123438910Y-105875214D01*
X123399500Y-106124038D01*
X120850500Y-106124038D01*
X120811090Y-105875215D01*
X120733241Y-105635621D01*
X120733239Y-105635618D01*
X120733239Y-105635616D01*
X120691747Y-105554184D01*
X120618870Y-105411155D01*
X120599952Y-105385117D01*
X120470798Y-105207350D01*
X120470794Y-105207345D01*
X120292654Y-105029205D01*
X120292649Y-105029201D01*
X120088848Y-104881132D01*
X120088847Y-104881131D01*
X120088845Y-104881130D01*
X120018747Y-104845413D01*
X119864383Y-104766760D01*
X119624785Y-104688910D01*
X119375962Y-104649500D01*
X119124038Y-104649500D01*
X118999626Y-104669205D01*
X118875214Y-104688910D01*
X118635616Y-104766760D01*
X118411151Y-104881132D01*
X118207350Y-105029201D01*
X118207345Y-105029205D01*
X118029205Y-105207345D01*
X118029201Y-105207350D01*
X117881132Y-105411151D01*
X117766760Y-105635616D01*
X117688910Y-105875214D01*
X117649500Y-106124038D01*
X116350500Y-106124038D01*
X116311090Y-105875215D01*
X116233241Y-105635621D01*
X116233239Y-105635618D01*
X116233239Y-105635616D01*
X116191747Y-105554184D01*
X116118870Y-105411155D01*
X116099952Y-105385117D01*
X115970798Y-105207350D01*
X115970794Y-105207345D01*
X115792654Y-105029205D01*
X115792649Y-105029201D01*
X115588848Y-104881132D01*
X115588847Y-104881131D01*
X115588845Y-104881130D01*
X115518747Y-104845413D01*
X115364383Y-104766760D01*
X115124785Y-104688910D01*
X114875962Y-104649500D01*
X114624038Y-104649500D01*
X114499626Y-104669205D01*
X114375214Y-104688910D01*
X114135616Y-104766760D01*
X113911151Y-104881132D01*
X113707350Y-105029201D01*
X113707345Y-105029205D01*
X113529205Y-105207345D01*
X113529201Y-105207350D01*
X113381132Y-105411151D01*
X113266760Y-105635616D01*
X113188910Y-105875214D01*
X113149500Y-106124038D01*
X111000500Y-106124038D01*
X111000500Y-72124500D01*
X111020185Y-72057461D01*
X111072989Y-72011706D01*
X111124500Y-72000500D01*
X117253796Y-72000500D01*
X117320835Y-72020185D01*
G37*
%TD.AperFunction*%
%TD*%
M02*
