M48
; DRILL file {KiCad 9.0.6} date 2026-01-05T22:50:20-0600
; FORMAT={-:-/ absolute / metric / decimal}
; #@! TF.CreationDate,2026-01-05T22:50:20-06:00
; #@! TF.GenerationSoftware,Kicad,Pcbnew,9.0.6
; #@! TF.FileFunction,Plated,1,2,PTH
FMAT,2
METRIC
; #@! TA.AperFunction,Plated,PTH,ComponentDrill
T1C0.800
; #@! TA.AperFunction,Plated,PTH,ComponentDrill
T2C1.100
%
G90
G05
T1
X114.19Y-74.38
X114.19Y-82.0
X114.5Y-91.44
X116.73Y-74.38
X116.73Y-82.0
X116.8Y-93.98
X119.27Y-74.38
X119.27Y-82.0
X119.34Y-91.44
X121.81Y-74.38
X121.81Y-82.0
X124.8Y-91.44
X126.0Y-81.0
X127.1Y-93.98
X129.64Y-91.44
X129.75Y-77.0
X132.29Y-77.0
X135.7Y-91.54
X136.16Y-81.0
X138.0Y-94.08
X140.54Y-91.54
X141.0Y-75.0
X141.0Y-82.5
X146.0Y-75.0
X146.0Y-85.16
X154.5Y-75.2
X154.5Y-82.8
X162.82Y-73.82
X162.82Y-76.36
X162.82Y-78.9
X162.82Y-81.44
X162.82Y-83.98
X162.82Y-86.52
X162.82Y-89.06
X162.82Y-91.6
X162.82Y-94.14
X162.82Y-96.68
X162.82Y-99.22
X162.82Y-101.76
X162.82Y-104.3
X162.82Y-106.84
X165.36Y-73.82
X165.36Y-76.36
X165.36Y-78.9
X165.36Y-81.44
X165.36Y-83.98
X165.36Y-86.52
X165.36Y-89.06
X165.36Y-91.6
X165.36Y-94.14
X165.36Y-96.68
X165.36Y-99.22
X165.36Y-101.76
X165.36Y-104.3
X165.36Y-106.84
X167.9Y-73.82
X167.9Y-76.36
X167.9Y-78.9
X167.9Y-81.44
X167.9Y-83.98
X167.9Y-86.52
X167.9Y-89.06
X167.9Y-91.6
X167.9Y-94.14
X167.9Y-96.68
X167.9Y-99.22
X167.9Y-101.76
X167.9Y-104.3
X167.9Y-106.84
X170.44Y-73.82
X170.44Y-76.36
X170.44Y-78.9
X170.44Y-81.44
X170.44Y-83.98
X170.44Y-86.52
X170.44Y-89.06
X170.44Y-91.6
X170.44Y-94.14
X170.44Y-96.68
X170.44Y-99.22
X170.44Y-101.76
X170.44Y-104.3
X170.44Y-106.84
X172.98Y-73.82
X172.98Y-76.36
X172.98Y-78.9
X172.98Y-81.44
X172.98Y-83.98
X172.98Y-86.52
X172.98Y-89.06
X172.98Y-91.6
X172.98Y-94.14
X172.98Y-96.68
X172.98Y-99.22
X172.98Y-101.76
X172.98Y-104.3
X172.98Y-106.84
T2
X114.75Y-99.75
X114.75Y-106.25
X119.25Y-99.75
X119.25Y-106.25
X125.0Y-99.75
X125.0Y-106.25
X129.5Y-99.75
X129.5Y-106.25
X135.75Y-99.75
X135.75Y-106.25
X140.25Y-99.75
X140.25Y-106.25
M30
