%TF.GenerationSoftware,KiCad,Pcbnew,9.0.6*%
%TF.CreationDate,2026-01-05T22:50:17-06:00*%
%TF.ProjectId,learntosolderkit,6c656172-6e74-46f7-936f-6c6465726b69,rev?*%
%TF.SameCoordinates,Original*%
%TF.FileFunction,Copper,L2,Bot*%
%TF.FilePolarity,Positive*%
%FSLAX46Y46*%
G04 Gerber Fmt 4.6, Leading zero omitted, Abs format (unit mm)*
G04 Created by KiCad (PCBNEW 9.0.6) date 2026-01-05 22:50:17*
%MOMM*%
%LPD*%
G01*
G04 APERTURE LIST*
G04 Aperture macros list*
%AMRoundRect*
0 Rectangle with rounded corners*
0 $1 Rounding radius*
0 $2 $3 $4 $5 $6 $7 $8 $9 X,Y pos of 4 corners*
0 Add a 4 corners polygon primitive as box body*
4,1,4,$2,$3,$4,$5,$6,$7,$8,$9,$2,$3,0*
0 Add four circle primitives for the rounded corners*
1,1,$1+$1,$2,$3*
1,1,$1+$1,$4,$5*
1,1,$1+$1,$6,$7*
1,1,$1+$1,$8,$9*
0 Add four rect primitives between the rounded corners*
20,1,$1+$1,$2,$3,$4,$5,0*
20,1,$1+$1,$4,$5,$6,$7,0*
20,1,$1+$1,$6,$7,$8,$9,0*
20,1,$1+$1,$8,$9,$2,$3,0*%
G04 Aperture macros list end*
%TA.AperFunction,ComponentPad*%
%ADD10C,1.600000*%
%TD*%
%TA.AperFunction,ComponentPad*%
%ADD11C,2.000000*%
%TD*%
%TA.AperFunction,ComponentPad*%
%ADD12RoundRect,0.250000X-0.550000X0.550000X-0.550000X-0.550000X0.550000X-0.550000X0.550000X0.550000X0*%
%TD*%
%TA.AperFunction,Conductor*%
%ADD13C,1.000000*%
%TD*%
G04 APERTURE END LIST*
D10*
%TO.P,REF\u002A\u002A,1*%
%TO.N,N/C*%
X172980000Y-106840000D03*
X170440000Y-106840000D03*
X167900000Y-106840000D03*
X165360000Y-106840000D03*
X162820000Y-106840000D03*
X172980000Y-104300000D03*
X170440000Y-104300000D03*
X167900000Y-104300000D03*
X165360000Y-104300000D03*
X162820000Y-104300000D03*
X162820000Y-73820000D03*
X162820000Y-76360000D03*
X162820000Y-78900000D03*
X162820000Y-81440000D03*
X162820000Y-83980000D03*
X162820000Y-86520000D03*
X162820000Y-89060000D03*
X162820000Y-91600000D03*
X162820000Y-94140000D03*
X162820000Y-96680000D03*
X162820000Y-99220000D03*
X162820000Y-101760000D03*
X165360000Y-73820000D03*
X165360000Y-76360000D03*
X165360000Y-78900000D03*
X165360000Y-81440000D03*
X165360000Y-83980000D03*
X165360000Y-86520000D03*
X165360000Y-89060000D03*
X165360000Y-91600000D03*
X165360000Y-94140000D03*
X165360000Y-96680000D03*
X165360000Y-99220000D03*
X165360000Y-101760000D03*
X167900000Y-73820000D03*
X167900000Y-76360000D03*
X167900000Y-78900000D03*
X167900000Y-81440000D03*
X167900000Y-83980000D03*
X167900000Y-86520000D03*
X167900000Y-89060000D03*
X167900000Y-91600000D03*
X167900000Y-94140000D03*
X167900000Y-96680000D03*
X167900000Y-99220000D03*
X167900000Y-101760000D03*
X170440000Y-73820000D03*
X170440000Y-76360000D03*
X170440000Y-78900000D03*
X170440000Y-81440000D03*
X170440000Y-83980000D03*
X170440000Y-86520000D03*
X170440000Y-89060000D03*
X170440000Y-91600000D03*
X170440000Y-94140000D03*
X170440000Y-96680000D03*
X170440000Y-99220000D03*
X170440000Y-101760000D03*
X172980000Y-73820000D03*
X172980000Y-76360000D03*
X172980000Y-78900000D03*
X172980000Y-81440000D03*
X172980000Y-83980000D03*
X172980000Y-86520000D03*
X172980000Y-89060000D03*
X172980000Y-91600000D03*
X172980000Y-94140000D03*
X172980000Y-96680000D03*
X172980000Y-99220000D03*
X172980000Y-101760000D03*
%TD*%
%TO.P,BZ1,1,+*%
%TO.N,Net-(BZ1-+)*%
X154500000Y-82800000D03*
%TO.P,BZ1,2,-*%
%TO.N,GND*%
X154500000Y-75200000D03*
%TD*%
%TO.P,RV2,1,1*%
%TO.N,unconnected-(RV2-Pad1)*%
X129640000Y-91440000D03*
%TO.P,RV2,2,2*%
%TO.N,Net-(U1-THR)*%
X127100000Y-93980000D03*
%TO.P,RV2,3,3*%
%TO.N,Net-(RV2-Pad3)*%
X124800000Y-91440000D03*
%TD*%
%TO.P,J1,2*%
%TO.N,GND*%
X129750000Y-77000000D03*
%TO.P,J1,1*%
%TO.N,+9V*%
X132290000Y-77000000D03*
%TD*%
%TO.P,R2,1*%
%TO.N,buzz*%
X146000000Y-75000000D03*
%TO.P,R2,2*%
%TO.N,Net-(BZ1-+)*%
X146000000Y-85160000D03*
%TD*%
D11*
%TO.P,SW3,1,1*%
%TO.N,Net-(U1-DIS)*%
X140250000Y-99750000D03*
X140250000Y-106250000D03*
%TO.P,SW3,2,2*%
%TO.N,Net-(RV3-Pad3)*%
X135750000Y-99750000D03*
X135750000Y-106250000D03*
%TD*%
D10*
%TO.P,R1,1*%
%TO.N,+9V*%
X136160000Y-81000000D03*
%TO.P,R1,2*%
%TO.N,Net-(U1-DIS)*%
X126000000Y-81000000D03*
%TD*%
%TO.P,C1,1*%
%TO.N,Net-(U1-THR)*%
X141000000Y-82500000D03*
%TO.P,C1,2*%
%TO.N,GND*%
X141000000Y-75000000D03*
%TD*%
D12*
%TO.P,U1,1,GND*%
%TO.N,GND*%
X121810000Y-74380000D03*
D10*
%TO.P,U1,2,TR*%
%TO.N,Net-(U1-THR)*%
X119270000Y-74380000D03*
%TO.P,U1,3,Q*%
%TO.N,buzz*%
X116730000Y-74380000D03*
%TO.P,U1,4,R*%
%TO.N,+9V*%
X114190000Y-74380000D03*
%TO.P,U1,5,CV*%
%TO.N,unconnected-(U1-CV-Pad5)*%
X114190000Y-82000000D03*
%TO.P,U1,6,THR*%
%TO.N,Net-(U1-THR)*%
X116730000Y-82000000D03*
%TO.P,U1,7,DIS*%
%TO.N,Net-(U1-DIS)*%
X119270000Y-82000000D03*
%TO.P,U1,8,VCC*%
%TO.N,+9V*%
X121810000Y-82000000D03*
%TD*%
D11*
%TO.P,SW1,1,1*%
%TO.N,Net-(U1-DIS)*%
X119250000Y-99750000D03*
X119250000Y-106250000D03*
%TO.P,SW1,2,2*%
%TO.N,Net-(RV1-Pad3)*%
X114750000Y-99750000D03*
X114750000Y-106250000D03*
%TD*%
%TO.P,SW2,1,1*%
%TO.N,Net-(U1-DIS)*%
X129500000Y-99750000D03*
X129500000Y-106250000D03*
%TO.P,SW2,2,2*%
%TO.N,Net-(RV2-Pad3)*%
X125000000Y-99750000D03*
X125000000Y-106250000D03*
%TD*%
D10*
%TO.P,RV3,3,3*%
%TO.N,Net-(RV3-Pad3)*%
X135700000Y-91540000D03*
%TO.P,RV3,2,2*%
%TO.N,Net-(U1-THR)*%
X138000000Y-94080000D03*
%TO.P,RV3,1,1*%
%TO.N,unconnected-(RV3-Pad1)*%
X140540000Y-91540000D03*
%TD*%
%TO.P,RV1,1,1*%
%TO.N,unconnected-(RV1-Pad1)*%
X119340000Y-91440000D03*
%TO.P,RV1,2,2*%
%TO.N,Net-(U1-THR)*%
X116800000Y-93980000D03*
%TO.P,RV1,3,3*%
%TO.N,Net-(RV1-Pad3)*%
X114500000Y-91440000D03*
%TD*%
D13*
%TO.N,Net-(U1-THR)*%
X137900000Y-93980000D02*
X138000000Y-94080000D01*
X116800000Y-93980000D02*
X137900000Y-93980000D01*
%TO.N,Net-(U1-DIS)*%
X119300000Y-99700000D02*
X119250000Y-99750000D01*
%TD*%
%TA.AperFunction,Conductor*%
%TO.N,+9V*%
G36*
X160943039Y-72020185D02*
G01*
X160988794Y-72072989D01*
X161000000Y-72124500D01*
X161000000Y-108275500D01*
X160980315Y-108342539D01*
X160927511Y-108388294D01*
X160876000Y-108399500D01*
X111124500Y-108399500D01*
X111057461Y-108379815D01*
X111011706Y-108327011D01*
X111000500Y-108275500D01*
X111000500Y-106131902D01*
X113249500Y-106131902D01*
X113249500Y-106368097D01*
X113286446Y-106601368D01*
X113359433Y-106825996D01*
X113466657Y-107036433D01*
X113605483Y-107227510D01*
X113772490Y-107394517D01*
X113963567Y-107533343D01*
X114062991Y-107584002D01*
X114174003Y-107640566D01*
X114174005Y-107640566D01*
X114174008Y-107640568D01*
X114294412Y-107679689D01*
X114398631Y-107713553D01*
X114631903Y-107750500D01*
X114631908Y-107750500D01*
X114868097Y-107750500D01*
X115101368Y-107713553D01*
X115325992Y-107640568D01*
X115536433Y-107533343D01*
X115727510Y-107394517D01*
X115894517Y-107227510D01*
X116033343Y-107036433D01*
X116140568Y-106825992D01*
X116213553Y-106601368D01*
X116250500Y-106368097D01*
X116250500Y-106131902D01*
X117749500Y-106131902D01*
X117749500Y-106368097D01*
X117786446Y-106601368D01*
X117859433Y-106825996D01*
X117966657Y-107036433D01*
X118105483Y-107227510D01*
X118272490Y-107394517D01*
X118463567Y-107533343D01*
X118562991Y-107584002D01*
X118674003Y-107640566D01*
X118674005Y-107640566D01*
X118674008Y-107640568D01*
X118794412Y-107679689D01*
X118898631Y-107713553D01*
X119131903Y-107750500D01*
X119131908Y-107750500D01*
X119368097Y-107750500D01*
X119601368Y-107713553D01*
X119825992Y-107640568D01*
X120036433Y-107533343D01*
X120227510Y-107394517D01*
X120394517Y-107227510D01*
X120533343Y-107036433D01*
X120640568Y-106825992D01*
X120713553Y-106601368D01*
X120750500Y-106368097D01*
X120750500Y-106131902D01*
X123499500Y-106131902D01*
X123499500Y-106368097D01*
X123536446Y-106601368D01*
X123609433Y-106825996D01*
X123716657Y-107036433D01*
X123855483Y-107227510D01*
X124022490Y-107394517D01*
X124213567Y-107533343D01*
X124312991Y-107584002D01*
X124424003Y-107640566D01*
X124424005Y-107640566D01*
X124424008Y-107640568D01*
X124544412Y-107679689D01*
X124648631Y-107713553D01*
X124881903Y-107750500D01*
X124881908Y-107750500D01*
X125118097Y-107750500D01*
X125351368Y-107713553D01*
X125575992Y-107640568D01*
X125786433Y-107533343D01*
X125977510Y-107394517D01*
X126144517Y-107227510D01*
X126283343Y-107036433D01*
X126390568Y-106825992D01*
X126463553Y-106601368D01*
X126500500Y-106368097D01*
X126500500Y-106131902D01*
X127999500Y-106131902D01*
X127999500Y-106368097D01*
X128036446Y-106601368D01*
X128109433Y-106825996D01*
X128216657Y-107036433D01*
X128355483Y-107227510D01*
X128522490Y-107394517D01*
X128713567Y-107533343D01*
X128812991Y-107584002D01*
X128924003Y-107640566D01*
X128924005Y-107640566D01*
X128924008Y-107640568D01*
X129044412Y-107679689D01*
X129148631Y-107713553D01*
X129381903Y-107750500D01*
X129381908Y-107750500D01*
X129618097Y-107750500D01*
X129851368Y-107713553D01*
X130075992Y-107640568D01*
X130286433Y-107533343D01*
X130477510Y-107394517D01*
X130644517Y-107227510D01*
X130783343Y-107036433D01*
X130890568Y-106825992D01*
X130963553Y-106601368D01*
X131000500Y-106368097D01*
X131000500Y-106131902D01*
X134249500Y-106131902D01*
X134249500Y-106368097D01*
X134286446Y-106601368D01*
X134359433Y-106825996D01*
X134466657Y-107036433D01*
X134605483Y-107227510D01*
X134772490Y-107394517D01*
X134963567Y-107533343D01*
X135062991Y-107584002D01*
X135174003Y-107640566D01*
X135174005Y-107640566D01*
X135174008Y-107640568D01*
X135294412Y-107679689D01*
X135398631Y-107713553D01*
X135631903Y-107750500D01*
X135631908Y-107750500D01*
X135868097Y-107750500D01*
X136101368Y-107713553D01*
X136325992Y-107640568D01*
X136536433Y-107533343D01*
X136727510Y-107394517D01*
X136894517Y-107227510D01*
X137033343Y-107036433D01*
X137140568Y-106825992D01*
X137213553Y-106601368D01*
X137250500Y-106368097D01*
X137250500Y-106131902D01*
X138749500Y-106131902D01*
X138749500Y-106368097D01*
X138786446Y-106601368D01*
X138859433Y-106825996D01*
X138966657Y-107036433D01*
X139105483Y-107227510D01*
X139272490Y-107394517D01*
X139463567Y-107533343D01*
X139562991Y-107584002D01*
X139674003Y-107640566D01*
X139674005Y-107640566D01*
X139674008Y-107640568D01*
X139794412Y-107679689D01*
X139898631Y-107713553D01*
X140131903Y-107750500D01*
X140131908Y-107750500D01*
X140368097Y-107750500D01*
X140601368Y-107713553D01*
X140825992Y-107640568D01*
X141036433Y-107533343D01*
X141227510Y-107394517D01*
X141394517Y-107227510D01*
X141533343Y-107036433D01*
X141640568Y-106825992D01*
X141713553Y-106601368D01*
X141750500Y-106368097D01*
X141750500Y-106131902D01*
X141713553Y-105898631D01*
X141640566Y-105674003D01*
X141533342Y-105463566D01*
X141394517Y-105272490D01*
X141227510Y-105105483D01*
X141036433Y-104966657D01*
X140825996Y-104859433D01*
X140601368Y-104786446D01*
X140368097Y-104749500D01*
X140368092Y-104749500D01*
X140131908Y-104749500D01*
X140131903Y-104749500D01*
X139898631Y-104786446D01*
X139674003Y-104859433D01*
X139463566Y-104966657D01*
X139354550Y-105045862D01*
X139272490Y-105105483D01*
X139272488Y-105105485D01*
X139272487Y-105105485D01*
X139105485Y-105272487D01*
X139105485Y-105272488D01*
X139105483Y-105272490D01*
X139045862Y-105354550D01*
X138966657Y-105463566D01*
X138859433Y-105674003D01*
X138786446Y-105898631D01*
X138749500Y-106131902D01*
X137250500Y-106131902D01*
X137213553Y-105898631D01*
X137140566Y-105674003D01*
X137033342Y-105463566D01*
X136894517Y-105272490D01*
X136727510Y-105105483D01*
X136536433Y-104966657D01*
X136325996Y-104859433D01*
X136101368Y-104786446D01*
X135868097Y-104749500D01*
X135868092Y-104749500D01*
X135631908Y-104749500D01*
X135631903Y-104749500D01*
X135398631Y-104786446D01*
X135174003Y-104859433D01*
X134963566Y-104966657D01*
X134854550Y-105045862D01*
X134772490Y-105105483D01*
X134772488Y-105105485D01*
X134772487Y-105105485D01*
X134605485Y-105272487D01*
X134605485Y-105272488D01*
X134605483Y-105272490D01*
X134545862Y-105354550D01*
X134466657Y-105463566D01*
X134359433Y-105674003D01*
X134286446Y-105898631D01*
X134249500Y-106131902D01*
X131000500Y-106131902D01*
X130963553Y-105898631D01*
X130890566Y-105674003D01*
X130783342Y-105463566D01*
X130644517Y-105272490D01*
X130477510Y-105105483D01*
X130286433Y-104966657D01*
X130075996Y-104859433D01*
X129851368Y-104786446D01*
X129618097Y-104749500D01*
X129618092Y-104749500D01*
X129381908Y-104749500D01*
X129381903Y-104749500D01*
X129148631Y-104786446D01*
X128924003Y-104859433D01*
X128713566Y-104966657D01*
X128604550Y-105045862D01*
X128522490Y-105105483D01*
X128522488Y-105105485D01*
X128522487Y-105105485D01*
X128355485Y-105272487D01*
X128355485Y-105272488D01*
X128355483Y-105272490D01*
X128295862Y-105354550D01*
X128216657Y-105463566D01*
X128109433Y-105674003D01*
X128036446Y-105898631D01*
X127999500Y-106131902D01*
X126500500Y-106131902D01*
X126463553Y-105898631D01*
X126390566Y-105674003D01*
X126283342Y-105463566D01*
X126144517Y-105272490D01*
X125977510Y-105105483D01*
X125786433Y-104966657D01*
X125575996Y-104859433D01*
X125351368Y-104786446D01*
X125118097Y-104749500D01*
X125118092Y-104749500D01*
X124881908Y-104749500D01*
X124881903Y-104749500D01*
X124648631Y-104786446D01*
X124424003Y-104859433D01*
X124213566Y-104966657D01*
X124104550Y-105045862D01*
X124022490Y-105105483D01*
X124022488Y-105105485D01*
X124022487Y-105105485D01*
X123855485Y-105272487D01*
X123855485Y-105272488D01*
X123855483Y-105272490D01*
X123795862Y-105354550D01*
X123716657Y-105463566D01*
X123609433Y-105674003D01*
X123536446Y-105898631D01*
X123499500Y-106131902D01*
X120750500Y-106131902D01*
X120713553Y-105898631D01*
X120640566Y-105674003D01*
X120533342Y-105463566D01*
X120394517Y-105272490D01*
X120227510Y-105105483D01*
X120036433Y-104966657D01*
X119825996Y-104859433D01*
X119601368Y-104786446D01*
X119368097Y-104749500D01*
X119368092Y-104749500D01*
X119131908Y-104749500D01*
X119131903Y-104749500D01*
X118898631Y-104786446D01*
X118674003Y-104859433D01*
X118463566Y-104966657D01*
X118354550Y-105045862D01*
X118272490Y-105105483D01*
X118272488Y-105105485D01*
X118272487Y-105105485D01*
X118105485Y-105272487D01*
X118105485Y-105272488D01*
X118105483Y-105272490D01*
X118045862Y-105354550D01*
X117966657Y-105463566D01*
X117859433Y-105674003D01*
X117786446Y-105898631D01*
X117749500Y-106131902D01*
X116250500Y-106131902D01*
X116213553Y-105898631D01*
X116140566Y-105674003D01*
X116033342Y-105463566D01*
X115894517Y-105272490D01*
X115727510Y-105105483D01*
X115536433Y-104966657D01*
X115325996Y-104859433D01*
X115101368Y-104786446D01*
X114868097Y-104749500D01*
X114868092Y-104749500D01*
X114631908Y-104749500D01*
X114631903Y-104749500D01*
X114398631Y-104786446D01*
X114174003Y-104859433D01*
X113963566Y-104966657D01*
X113854550Y-105045862D01*
X113772490Y-105105483D01*
X113772488Y-105105485D01*
X113772487Y-105105485D01*
X113605485Y-105272487D01*
X113605485Y-105272488D01*
X113605483Y-105272490D01*
X113545862Y-105354550D01*
X113466657Y-105463566D01*
X113359433Y-105674003D01*
X113286446Y-105898631D01*
X113249500Y-106131902D01*
X111000500Y-106131902D01*
X111000500Y-99631902D01*
X113249500Y-99631902D01*
X113249500Y-99868097D01*
X113286446Y-100101368D01*
X113359433Y-100325996D01*
X113466657Y-100536433D01*
X113605483Y-100727510D01*
X113772490Y-100894517D01*
X113963567Y-101033343D01*
X114062991Y-101084002D01*
X114174003Y-101140566D01*
X114174005Y-101140566D01*
X114174008Y-101140568D01*
X114294412Y-101179689D01*
X114398631Y-101213553D01*
X114631903Y-101250500D01*
X114631908Y-101250500D01*
X114868097Y-101250500D01*
X115101368Y-101213553D01*
X115325992Y-101140568D01*
X115536433Y-101033343D01*
X115727510Y-100894517D01*
X115894517Y-100727510D01*
X116033343Y-100536433D01*
X116140568Y-100325992D01*
X116213553Y-100101368D01*
X116250500Y-99868097D01*
X116250500Y-99631902D01*
X117749500Y-99631902D01*
X117749500Y-99868097D01*
X117786446Y-100101368D01*
X117859433Y-100325996D01*
X117966657Y-100536433D01*
X118105483Y-100727510D01*
X118272490Y-100894517D01*
X118463567Y-101033343D01*
X118562991Y-101084002D01*
X118674003Y-101140566D01*
X118674005Y-101140566D01*
X118674008Y-101140568D01*
X118794412Y-101179689D01*
X118898631Y-101213553D01*
X119131903Y-101250500D01*
X119131908Y-101250500D01*
X119368097Y-101250500D01*
X119601368Y-101213553D01*
X119825992Y-101140568D01*
X120036433Y-101033343D01*
X120227510Y-100894517D01*
X120394517Y-100727510D01*
X120533343Y-100536433D01*
X120640568Y-100325992D01*
X120713553Y-100101368D01*
X120750500Y-99868097D01*
X120750500Y-99631902D01*
X123499500Y-99631902D01*
X123499500Y-99868097D01*
X123536446Y-100101368D01*
X123609433Y-100325996D01*
X123716657Y-100536433D01*
X123855483Y-100727510D01*
X124022490Y-100894517D01*
X124213567Y-101033343D01*
X124312991Y-101084002D01*
X124424003Y-101140566D01*
X124424005Y-101140566D01*
X124424008Y-101140568D01*
X124544412Y-101179689D01*
X124648631Y-101213553D01*
X124881903Y-101250500D01*
X124881908Y-101250500D01*
X125118097Y-101250500D01*
X125351368Y-101213553D01*
X125575992Y-101140568D01*
X125786433Y-101033343D01*
X125977510Y-100894517D01*
X126144517Y-100727510D01*
X126283343Y-100536433D01*
X126390568Y-100325992D01*
X126463553Y-100101368D01*
X126500500Y-99868097D01*
X126500500Y-99631902D01*
X127999500Y-99631902D01*
X127999500Y-99868097D01*
X128036446Y-100101368D01*
X128109433Y-100325996D01*
X128216657Y-100536433D01*
X128355483Y-100727510D01*
X128522490Y-100894517D01*
X128713567Y-101033343D01*
X128812991Y-101084002D01*
X128924003Y-101140566D01*
X128924005Y-101140566D01*
X128924008Y-101140568D01*
X129044412Y-101179689D01*
X129148631Y-101213553D01*
X129381903Y-101250500D01*
X129381908Y-101250500D01*
X129618097Y-101250500D01*
X129851368Y-101213553D01*
X130075992Y-101140568D01*
X130286433Y-101033343D01*
X130477510Y-100894517D01*
X130644517Y-100727510D01*
X130783343Y-100536433D01*
X130890568Y-100325992D01*
X130963553Y-100101368D01*
X131000500Y-99868097D01*
X131000500Y-99631902D01*
X134249500Y-99631902D01*
X134249500Y-99868097D01*
X134286446Y-100101368D01*
X134359433Y-100325996D01*
X134466657Y-100536433D01*
X134605483Y-100727510D01*
X134772490Y-100894517D01*
X134963567Y-101033343D01*
X135062991Y-101084002D01*
X135174003Y-101140566D01*
X135174005Y-101140566D01*
X135174008Y-101140568D01*
X135294412Y-101179689D01*
X135398631Y-101213553D01*
X135631903Y-101250500D01*
X135631908Y-101250500D01*
X135868097Y-101250500D01*
X136101368Y-101213553D01*
X136325992Y-101140568D01*
X136536433Y-101033343D01*
X136727510Y-100894517D01*
X136894517Y-100727510D01*
X137033343Y-100536433D01*
X137140568Y-100325992D01*
X137213553Y-100101368D01*
X137250500Y-99868097D01*
X137250500Y-99631902D01*
X138749500Y-99631902D01*
X138749500Y-99868097D01*
X138786446Y-100101368D01*
X138859433Y-100325996D01*
X138966657Y-100536433D01*
X139105483Y-100727510D01*
X139272490Y-100894517D01*
X139463567Y-101033343D01*
X139562991Y-101084002D01*
X139674003Y-101140566D01*
X139674005Y-101140566D01*
X139674008Y-101140568D01*
X139794412Y-101179689D01*
X139898631Y-101213553D01*
X140131903Y-101250500D01*
X140131908Y-101250500D01*
X140368097Y-101250500D01*
X140601368Y-101213553D01*
X140825992Y-101140568D01*
X141036433Y-101033343D01*
X141227510Y-100894517D01*
X141394517Y-100727510D01*
X141533343Y-100536433D01*
X141640568Y-100325992D01*
X141713553Y-100101368D01*
X141750500Y-99868097D01*
X141750500Y-99631902D01*
X141713553Y-99398631D01*
X141640566Y-99174003D01*
X141533342Y-98963566D01*
X141394517Y-98772490D01*
X141227510Y-98605483D01*
X141036433Y-98466657D01*
X140825996Y-98359433D01*
X140601368Y-98286446D01*
X140368097Y-98249500D01*
X140368092Y-98249500D01*
X140131908Y-98249500D01*
X140131903Y-98249500D01*
X139898631Y-98286446D01*
X139674003Y-98359433D01*
X139463566Y-98466657D01*
X139354550Y-98545862D01*
X139272490Y-98605483D01*
X139272488Y-98605485D01*
X139272487Y-98605485D01*
X139105485Y-98772487D01*
X139105485Y-98772488D01*
X139105483Y-98772490D01*
X139045862Y-98854550D01*
X138966657Y-98963566D01*
X138859433Y-99174003D01*
X138786446Y-99398631D01*
X138749500Y-99631902D01*
X137250500Y-99631902D01*
X137213553Y-99398631D01*
X137140566Y-99174003D01*
X137033342Y-98963566D01*
X136894517Y-98772490D01*
X136727510Y-98605483D01*
X136536433Y-98466657D01*
X136325996Y-98359433D01*
X136101368Y-98286446D01*
X135868097Y-98249500D01*
X135868092Y-98249500D01*
X135631908Y-98249500D01*
X135631903Y-98249500D01*
X135398631Y-98286446D01*
X135174003Y-98359433D01*
X134963566Y-98466657D01*
X134854550Y-98545862D01*
X134772490Y-98605483D01*
X134772488Y-98605485D01*
X134772487Y-98605485D01*
X134605485Y-98772487D01*
X134605485Y-98772488D01*
X134605483Y-98772490D01*
X134545862Y-98854550D01*
X134466657Y-98963566D01*
X134359433Y-99174003D01*
X134286446Y-99398631D01*
X134249500Y-99631902D01*
X131000500Y-99631902D01*
X130963553Y-99398631D01*
X130890566Y-99174003D01*
X130783342Y-98963566D01*
X130644517Y-98772490D01*
X130477510Y-98605483D01*
X130286433Y-98466657D01*
X130075996Y-98359433D01*
X129851368Y-98286446D01*
X129618097Y-98249500D01*
X129618092Y-98249500D01*
X129381908Y-98249500D01*
X129381903Y-98249500D01*
X129148631Y-98286446D01*
X128924003Y-98359433D01*
X128713566Y-98466657D01*
X128604550Y-98545862D01*
X128522490Y-98605483D01*
X128522488Y-98605485D01*
X128522487Y-98605485D01*
X128355485Y-98772487D01*
X128355485Y-98772488D01*
X128355483Y-98772490D01*
X128295862Y-98854550D01*
X128216657Y-98963566D01*
X128109433Y-99174003D01*
X128036446Y-99398631D01*
X127999500Y-99631902D01*
X126500500Y-99631902D01*
X126463553Y-99398631D01*
X126390566Y-99174003D01*
X126283342Y-98963566D01*
X126144517Y-98772490D01*
X125977510Y-98605483D01*
X125786433Y-98466657D01*
X125575996Y-98359433D01*
X125351368Y-98286446D01*
X125118097Y-98249500D01*
X125118092Y-98249500D01*
X124881908Y-98249500D01*
X124881903Y-98249500D01*
X124648631Y-98286446D01*
X124424003Y-98359433D01*
X124213566Y-98466657D01*
X124104550Y-98545862D01*
X124022490Y-98605483D01*
X124022488Y-98605485D01*
X124022487Y-98605485D01*
X123855485Y-98772487D01*
X123855485Y-98772488D01*
X123855483Y-98772490D01*
X123795862Y-98854550D01*
X123716657Y-98963566D01*
X123609433Y-99174003D01*
X123536446Y-99398631D01*
X123499500Y-99631902D01*
X120750500Y-99631902D01*
X120713553Y-99398631D01*
X120640566Y-99174003D01*
X120533342Y-98963566D01*
X120394517Y-98772490D01*
X120227510Y-98605483D01*
X120036433Y-98466657D01*
X119825996Y-98359433D01*
X119601368Y-98286446D01*
X119368097Y-98249500D01*
X119368092Y-98249500D01*
X119131908Y-98249500D01*
X119131903Y-98249500D01*
X118898631Y-98286446D01*
X118674003Y-98359433D01*
X118463566Y-98466657D01*
X118354550Y-98545862D01*
X118272490Y-98605483D01*
X118272488Y-98605485D01*
X118272487Y-98605485D01*
X118105485Y-98772487D01*
X118105485Y-98772488D01*
X118105483Y-98772490D01*
X118045862Y-98854550D01*
X117966657Y-98963566D01*
X117859433Y-99174003D01*
X117786446Y-99398631D01*
X117749500Y-99631902D01*
X116250500Y-99631902D01*
X116213553Y-99398631D01*
X116140566Y-99174003D01*
X116033342Y-98963566D01*
X115894517Y-98772490D01*
X115727510Y-98605483D01*
X115536433Y-98466657D01*
X115325996Y-98359433D01*
X115101368Y-98286446D01*
X114868097Y-98249500D01*
X114868092Y-98249500D01*
X114631908Y-98249500D01*
X114631903Y-98249500D01*
X114398631Y-98286446D01*
X114174003Y-98359433D01*
X113963566Y-98466657D01*
X113854550Y-98545862D01*
X113772490Y-98605483D01*
X113772488Y-98605485D01*
X113772487Y-98605485D01*
X113605485Y-98772487D01*
X113605485Y-98772488D01*
X113605483Y-98772490D01*
X113545862Y-98854550D01*
X113466657Y-98963566D01*
X113359433Y-99174003D01*
X113286446Y-99398631D01*
X113249500Y-99631902D01*
X111000500Y-99631902D01*
X111000500Y-93877648D01*
X115499500Y-93877648D01*
X115499500Y-94082351D01*
X115531522Y-94284534D01*
X115594781Y-94479223D01*
X115687715Y-94661613D01*
X115808028Y-94827213D01*
X115952786Y-94971971D01*
X116090420Y-95071966D01*
X116118390Y-95092287D01*
X116234607Y-95151503D01*
X116300776Y-95185218D01*
X116300778Y-95185218D01*
X116300781Y-95185220D01*
X116405137Y-95219127D01*
X116495465Y-95248477D01*
X116596557Y-95264488D01*
X116697648Y-95280500D01*
X116697649Y-95280500D01*
X116902351Y-95280500D01*
X116902352Y-95280500D01*
X117104534Y-95248477D01*
X117299219Y-95185220D01*
X117481610Y-95092287D01*
X117602877Y-95004181D01*
X117668683Y-94980702D01*
X117675762Y-94980500D01*
X126224238Y-94980500D01*
X126291277Y-95000185D01*
X126297119Y-95004179D01*
X126418390Y-95092287D01*
X126534607Y-95151503D01*
X126600776Y-95185218D01*
X126600778Y-95185218D01*
X126600781Y-95185220D01*
X126705137Y-95219127D01*
X126795465Y-95248477D01*
X126896557Y-95264488D01*
X126997648Y-95280500D01*
X126997649Y-95280500D01*
X127202351Y-95280500D01*
X127202352Y-95280500D01*
X127404534Y-95248477D01*
X127599219Y-95185220D01*
X127781610Y-95092287D01*
X127902877Y-95004181D01*
X127968683Y-94980702D01*
X127975762Y-94980500D01*
X137009953Y-94980500D01*
X137076992Y-95000185D01*
X137097634Y-95016819D01*
X137152786Y-95071971D01*
X137307749Y-95184556D01*
X137318390Y-95192287D01*
X137428669Y-95248477D01*
X137500776Y-95285218D01*
X137500778Y-95285218D01*
X137500781Y-95285220D01*
X137605137Y-95319127D01*
X137695465Y-95348477D01*
X137796557Y-95364488D01*
X137897648Y-95380500D01*
X137897649Y-95380500D01*
X138102351Y-95380500D01*
X138102352Y-95380500D01*
X138304534Y-95348477D01*
X138499219Y-95285220D01*
X138681610Y-95192287D01*
X138774590Y-95124732D01*
X138847213Y-95071971D01*
X138847215Y-95071968D01*
X138847219Y-95071966D01*
X138991966Y-94927219D01*
X138991968Y-94927215D01*
X138991971Y-94927213D01*
X139044732Y-94854590D01*
X139112287Y-94761610D01*
X139205220Y-94579219D01*
X139268477Y-94384534D01*
X139300500Y-94182352D01*
X139300500Y-93977648D01*
X139268477Y-93775466D01*
X139205220Y-93580781D01*
X139205218Y-93580778D01*
X139205218Y-93580776D01*
X139154265Y-93480776D01*
X139112287Y-93398390D01*
X139104556Y-93387749D01*
X138991971Y-93232786D01*
X138847213Y-93088028D01*
X138681613Y-92967715D01*
X138681612Y-92967714D01*
X138681610Y-92967713D01*
X138624653Y-92938691D01*
X138499223Y-92874781D01*
X138304534Y-92811522D01*
X138129995Y-92783878D01*
X138102352Y-92779500D01*
X137897648Y-92779500D01*
X137873329Y-92783351D01*
X137695465Y-92811522D01*
X137500776Y-92874781D01*
X137383899Y-92934334D01*
X137321779Y-92965985D01*
X137265488Y-92979500D01*
X136255917Y-92979500D01*
X136188878Y-92959815D01*
X136143123Y-92907011D01*
X136133179Y-92837853D01*
X136162204Y-92774297D01*
X136199622Y-92745015D01*
X136233705Y-92727648D01*
X136381610Y-92652287D01*
X136474590Y-92584732D01*
X136547213Y-92531971D01*
X136547215Y-92531968D01*
X136547219Y-92531966D01*
X136691966Y-92387219D01*
X136691968Y-92387215D01*
X136691971Y-92387213D01*
X136744732Y-92314590D01*
X136812287Y-92221610D01*
X136905220Y-92039219D01*
X136968477Y-91844534D01*
X137000500Y-91642352D01*
X137000500Y-91437648D01*
X139239500Y-91437648D01*
X139239500Y-91642351D01*
X139271522Y-91844534D01*
X139334781Y-92039223D01*
X139427715Y-92221613D01*
X139548028Y-92387213D01*
X139692786Y-92531971D01*
X139847749Y-92644556D01*
X139858390Y-92652287D01*
X139968669Y-92708477D01*
X140040776Y-92745218D01*
X140040778Y-92745218D01*
X140040781Y-92745220D01*
X140145137Y-92779127D01*
X140235465Y-92808477D01*
X140336557Y-92824488D01*
X140437648Y-92840500D01*
X140437649Y-92840500D01*
X140642351Y-92840500D01*
X140642352Y-92840500D01*
X140844534Y-92808477D01*
X141039219Y-92745220D01*
X141221610Y-92652287D01*
X141314590Y-92584732D01*
X141387213Y-92531971D01*
X141387215Y-92531968D01*
X141387219Y-92531966D01*
X141531966Y-92387219D01*
X141531968Y-92387215D01*
X141531971Y-92387213D01*
X141584732Y-92314590D01*
X141652287Y-92221610D01*
X141745220Y-92039219D01*
X141808477Y-91844534D01*
X141840500Y-91642352D01*
X141840500Y-91437648D01*
X141808477Y-91235466D01*
X141745220Y-91040781D01*
X141745218Y-91040778D01*
X141745218Y-91040776D01*
X141694265Y-90940776D01*
X141652287Y-90858390D01*
X141644556Y-90847749D01*
X141531971Y-90692786D01*
X141387213Y-90548028D01*
X141221613Y-90427715D01*
X141221612Y-90427714D01*
X141221610Y-90427713D01*
X141164653Y-90398691D01*
X141039223Y-90334781D01*
X140844534Y-90271522D01*
X140669995Y-90243878D01*
X140642352Y-90239500D01*
X140437648Y-90239500D01*
X140413329Y-90243351D01*
X140235465Y-90271522D01*
X140040776Y-90334781D01*
X139858386Y-90427715D01*
X139692786Y-90548028D01*
X139548028Y-90692786D01*
X139427715Y-90858386D01*
X139334781Y-91040776D01*
X139271522Y-91235465D01*
X139239500Y-91437648D01*
X137000500Y-91437648D01*
X136968477Y-91235466D01*
X136905220Y-91040781D01*
X136905218Y-91040778D01*
X136905218Y-91040776D01*
X136854265Y-90940776D01*
X136812287Y-90858390D01*
X136804556Y-90847749D01*
X136691971Y-90692786D01*
X136547213Y-90548028D01*
X136381613Y-90427715D01*
X136381612Y-90427714D01*
X136381610Y-90427713D01*
X136324653Y-90398691D01*
X136199223Y-90334781D01*
X136004534Y-90271522D01*
X135829995Y-90243878D01*
X135802352Y-90239500D01*
X135597648Y-90239500D01*
X135573329Y-90243351D01*
X135395465Y-90271522D01*
X135200776Y-90334781D01*
X135018386Y-90427715D01*
X134852786Y-90548028D01*
X134708028Y-90692786D01*
X134587715Y-90858386D01*
X134494781Y-91040776D01*
X134431522Y-91235465D01*
X134399500Y-91437648D01*
X134399500Y-91642351D01*
X134431522Y-91844534D01*
X134494781Y-92039223D01*
X134587715Y-92221613D01*
X134708028Y-92387213D01*
X134852786Y-92531971D01*
X135007749Y-92644556D01*
X135018390Y-92652287D01*
X135128669Y-92708477D01*
X135200378Y-92745015D01*
X135251174Y-92792990D01*
X135267969Y-92860811D01*
X135245431Y-92926946D01*
X135190716Y-92970397D01*
X135144083Y-92979500D01*
X129808931Y-92979500D01*
X129741892Y-92959815D01*
X129696137Y-92907011D01*
X129686193Y-92837853D01*
X129715218Y-92774297D01*
X129773996Y-92736523D01*
X129789530Y-92733027D01*
X129944534Y-92708477D01*
X130139219Y-92645220D01*
X130321610Y-92552287D01*
X130414590Y-92484732D01*
X130487213Y-92431971D01*
X130487215Y-92431968D01*
X130487219Y-92431966D01*
X130631966Y-92287219D01*
X130631968Y-92287215D01*
X130631971Y-92287213D01*
X130684732Y-92214590D01*
X130752287Y-92121610D01*
X130845220Y-91939219D01*
X130908477Y-91744534D01*
X130940500Y-91542352D01*
X130940500Y-91337648D01*
X130908477Y-91135466D01*
X130845220Y-90940781D01*
X130845218Y-90940778D01*
X130845218Y-90940776D01*
X130811503Y-90874607D01*
X130752287Y-90758390D01*
X130744556Y-90747749D01*
X130631971Y-90592786D01*
X130487213Y-90448028D01*
X130321613Y-90327715D01*
X130321612Y-90327714D01*
X130321610Y-90327713D01*
X130264653Y-90298691D01*
X130139223Y-90234781D01*
X129944534Y-90171522D01*
X129769995Y-90143878D01*
X129742352Y-90139500D01*
X129537648Y-90139500D01*
X129513329Y-90143351D01*
X129335465Y-90171522D01*
X129140776Y-90234781D01*
X128958386Y-90327715D01*
X128792786Y-90448028D01*
X128648028Y-90592786D01*
X128527715Y-90758386D01*
X128434781Y-90940776D01*
X128371522Y-91135465D01*
X128339500Y-91337648D01*
X128339500Y-91542351D01*
X128371522Y-91744534D01*
X128434781Y-91939223D01*
X128527715Y-92121613D01*
X128648028Y-92287213D01*
X128792786Y-92431971D01*
X128930420Y-92531966D01*
X128958390Y-92552287D01*
X129074607Y-92611503D01*
X129140776Y-92645218D01*
X129140778Y-92645218D01*
X129140781Y-92645220D01*
X129245137Y-92679127D01*
X129335465Y-92708477D01*
X129354697Y-92711523D01*
X129490467Y-92733027D01*
X129553602Y-92762956D01*
X129590533Y-92822268D01*
X129589535Y-92892130D01*
X129550925Y-92950363D01*
X129486962Y-92978477D01*
X129471069Y-92979500D01*
X127975762Y-92979500D01*
X127908723Y-92959815D01*
X127902877Y-92955818D01*
X127781613Y-92867715D01*
X127781612Y-92867714D01*
X127781610Y-92867713D01*
X127723007Y-92837853D01*
X127599223Y-92774781D01*
X127404534Y-92711522D01*
X127229995Y-92683878D01*
X127202352Y-92679500D01*
X126997648Y-92679500D01*
X126973329Y-92683351D01*
X126795465Y-92711522D01*
X126600776Y-92774781D01*
X126418386Y-92867715D01*
X126297123Y-92955818D01*
X126231317Y-92979298D01*
X126224238Y-92979500D01*
X124968931Y-92979500D01*
X124901892Y-92959815D01*
X124856137Y-92907011D01*
X124846193Y-92837853D01*
X124875218Y-92774297D01*
X124933996Y-92736523D01*
X124949530Y-92733027D01*
X125104534Y-92708477D01*
X125299219Y-92645220D01*
X125481610Y-92552287D01*
X125574590Y-92484732D01*
X125647213Y-92431971D01*
X125647215Y-92431968D01*
X125647219Y-92431966D01*
X125791966Y-92287219D01*
X125791968Y-92287215D01*
X125791971Y-92287213D01*
X125844732Y-92214590D01*
X125912287Y-92121610D01*
X126005220Y-91939219D01*
X126068477Y-91744534D01*
X126100500Y-91542352D01*
X126100500Y-91337648D01*
X126068477Y-91135466D01*
X126005220Y-90940781D01*
X126005218Y-90940778D01*
X126005218Y-90940776D01*
X125971503Y-90874607D01*
X125912287Y-90758390D01*
X125904556Y-90747749D01*
X125791971Y-90592786D01*
X125647213Y-90448028D01*
X125481613Y-90327715D01*
X125481612Y-90327714D01*
X125481610Y-90327713D01*
X125424653Y-90298691D01*
X125299223Y-90234781D01*
X125104534Y-90171522D01*
X124929995Y-90143878D01*
X124902352Y-90139500D01*
X124697648Y-90139500D01*
X124673329Y-90143351D01*
X124495465Y-90171522D01*
X124300776Y-90234781D01*
X124118386Y-90327715D01*
X123952786Y-90448028D01*
X123808028Y-90592786D01*
X123687715Y-90758386D01*
X123594781Y-90940776D01*
X123531522Y-91135465D01*
X123499500Y-91337648D01*
X123499500Y-91542351D01*
X123531522Y-91744534D01*
X123594781Y-91939223D01*
X123687715Y-92121613D01*
X123808028Y-92287213D01*
X123952786Y-92431971D01*
X124090420Y-92531966D01*
X124118390Y-92552287D01*
X124234607Y-92611503D01*
X124300776Y-92645218D01*
X124300778Y-92645218D01*
X124300781Y-92645220D01*
X124405137Y-92679127D01*
X124495465Y-92708477D01*
X124514697Y-92711523D01*
X124650467Y-92733027D01*
X124713602Y-92762956D01*
X124750533Y-92822268D01*
X124749535Y-92892130D01*
X124710925Y-92950363D01*
X124646962Y-92978477D01*
X124631069Y-92979500D01*
X119508931Y-92979500D01*
X119441892Y-92959815D01*
X119396137Y-92907011D01*
X119386193Y-92837853D01*
X119415218Y-92774297D01*
X119473996Y-92736523D01*
X119489530Y-92733027D01*
X119644534Y-92708477D01*
X119839219Y-92645220D01*
X120021610Y-92552287D01*
X120114590Y-92484732D01*
X120187213Y-92431971D01*
X120187215Y-92431968D01*
X120187219Y-92431966D01*
X120331966Y-92287219D01*
X120331968Y-92287215D01*
X120331971Y-92287213D01*
X120384732Y-92214590D01*
X120452287Y-92121610D01*
X120545220Y-91939219D01*
X120608477Y-91744534D01*
X120640500Y-91542352D01*
X120640500Y-91337648D01*
X120608477Y-91135466D01*
X120545220Y-90940781D01*
X120545218Y-90940778D01*
X120545218Y-90940776D01*
X120511503Y-90874607D01*
X120452287Y-90758390D01*
X120444556Y-90747749D01*
X120331971Y-90592786D01*
X120187213Y-90448028D01*
X120021613Y-90327715D01*
X120021612Y-90327714D01*
X120021610Y-90327713D01*
X119964653Y-90298691D01*
X119839223Y-90234781D01*
X119644534Y-90171522D01*
X119469995Y-90143878D01*
X119442352Y-90139500D01*
X119237648Y-90139500D01*
X119213329Y-90143351D01*
X119035465Y-90171522D01*
X118840776Y-90234781D01*
X118658386Y-90327715D01*
X118492786Y-90448028D01*
X118348028Y-90592786D01*
X118227715Y-90758386D01*
X118134781Y-90940776D01*
X118071522Y-91135465D01*
X118039500Y-91337648D01*
X118039500Y-91542351D01*
X118071522Y-91744534D01*
X118134781Y-91939223D01*
X118227715Y-92121613D01*
X118348028Y-92287213D01*
X118492786Y-92431971D01*
X118630420Y-92531966D01*
X118658390Y-92552287D01*
X118774607Y-92611503D01*
X118840776Y-92645218D01*
X118840778Y-92645218D01*
X118840781Y-92645220D01*
X118945137Y-92679127D01*
X119035465Y-92708477D01*
X119054697Y-92711523D01*
X119190467Y-92733027D01*
X119253602Y-92762956D01*
X119290533Y-92822268D01*
X119289535Y-92892130D01*
X119250925Y-92950363D01*
X119186962Y-92978477D01*
X119171069Y-92979500D01*
X117675762Y-92979500D01*
X117608723Y-92959815D01*
X117602877Y-92955818D01*
X117481613Y-92867715D01*
X117481612Y-92867714D01*
X117481610Y-92867713D01*
X117423007Y-92837853D01*
X117299223Y-92774781D01*
X117104534Y-92711522D01*
X116929995Y-92683878D01*
X116902352Y-92679500D01*
X116697648Y-92679500D01*
X116673329Y-92683351D01*
X116495465Y-92711522D01*
X116300776Y-92774781D01*
X116118386Y-92867715D01*
X115952786Y-92988028D01*
X115808028Y-93132786D01*
X115687715Y-93298386D01*
X115594781Y-93480776D01*
X115531522Y-93675465D01*
X115499500Y-93877648D01*
X111000500Y-93877648D01*
X111000500Y-91337648D01*
X113199500Y-91337648D01*
X113199500Y-91542351D01*
X113231522Y-91744534D01*
X113294781Y-91939223D01*
X113387715Y-92121613D01*
X113508028Y-92287213D01*
X113652786Y-92431971D01*
X113790420Y-92531966D01*
X113818390Y-92552287D01*
X113934607Y-92611503D01*
X114000776Y-92645218D01*
X114000778Y-92645218D01*
X114000781Y-92645220D01*
X114105137Y-92679127D01*
X114195465Y-92708477D01*
X114214697Y-92711523D01*
X114397648Y-92740500D01*
X114397649Y-92740500D01*
X114602351Y-92740500D01*
X114602352Y-92740500D01*
X114804534Y-92708477D01*
X114999219Y-92645220D01*
X115181610Y-92552287D01*
X115274590Y-92484732D01*
X115347213Y-92431971D01*
X115347215Y-92431968D01*
X115347219Y-92431966D01*
X115491966Y-92287219D01*
X115491968Y-92287215D01*
X115491971Y-92287213D01*
X115544732Y-92214590D01*
X115612287Y-92121610D01*
X115705220Y-91939219D01*
X115768477Y-91744534D01*
X115800500Y-91542352D01*
X115800500Y-91337648D01*
X115768477Y-91135466D01*
X115705220Y-90940781D01*
X115705218Y-90940778D01*
X115705218Y-90940776D01*
X115671503Y-90874607D01*
X115612287Y-90758390D01*
X115604556Y-90747749D01*
X115491971Y-90592786D01*
X115347213Y-90448028D01*
X115181613Y-90327715D01*
X115181612Y-90327714D01*
X115181610Y-90327713D01*
X115124653Y-90298691D01*
X114999223Y-90234781D01*
X114804534Y-90171522D01*
X114629995Y-90143878D01*
X114602352Y-90139500D01*
X114397648Y-90139500D01*
X114373329Y-90143351D01*
X114195465Y-90171522D01*
X114000776Y-90234781D01*
X113818386Y-90327715D01*
X113652786Y-90448028D01*
X113508028Y-90592786D01*
X113387715Y-90758386D01*
X113294781Y-90940776D01*
X113231522Y-91135465D01*
X113199500Y-91337648D01*
X111000500Y-91337648D01*
X111000500Y-85057648D01*
X144699500Y-85057648D01*
X144699500Y-85262351D01*
X144731522Y-85464534D01*
X144794781Y-85659223D01*
X144887715Y-85841613D01*
X145008028Y-86007213D01*
X145152786Y-86151971D01*
X145307749Y-86264556D01*
X145318390Y-86272287D01*
X145434607Y-86331503D01*
X145500776Y-86365218D01*
X145500778Y-86365218D01*
X145500781Y-86365220D01*
X145605137Y-86399127D01*
X145695465Y-86428477D01*
X145796557Y-86444488D01*
X145897648Y-86460500D01*
X145897649Y-86460500D01*
X146102351Y-86460500D01*
X146102352Y-86460500D01*
X146304534Y-86428477D01*
X146499219Y-86365220D01*
X146681610Y-86272287D01*
X146774590Y-86204732D01*
X146847213Y-86151971D01*
X146847215Y-86151968D01*
X146847219Y-86151966D01*
X146991966Y-86007219D01*
X146991968Y-86007215D01*
X146991971Y-86007213D01*
X147044732Y-85934590D01*
X147112287Y-85841610D01*
X147205220Y-85659219D01*
X147268477Y-85464534D01*
X147300500Y-85262352D01*
X147300500Y-85057648D01*
X147268477Y-84855466D01*
X147205220Y-84660781D01*
X147205218Y-84660778D01*
X147205218Y-84660776D01*
X147171503Y-84594607D01*
X147112287Y-84478390D01*
X147104556Y-84467749D01*
X146991971Y-84312786D01*
X146847213Y-84168028D01*
X146681613Y-84047715D01*
X146681612Y-84047714D01*
X146681610Y-84047713D01*
X146598209Y-84005218D01*
X146499223Y-83954781D01*
X146304534Y-83891522D01*
X146129995Y-83863878D01*
X146102352Y-83859500D01*
X145897648Y-83859500D01*
X145873329Y-83863351D01*
X145695465Y-83891522D01*
X145500776Y-83954781D01*
X145318386Y-84047715D01*
X145152786Y-84168028D01*
X145008028Y-84312786D01*
X144887715Y-84478386D01*
X144794781Y-84660776D01*
X144731522Y-84855465D01*
X144699500Y-85057648D01*
X111000500Y-85057648D01*
X111000500Y-81897648D01*
X112889500Y-81897648D01*
X112889500Y-82102351D01*
X112921522Y-82304534D01*
X112984781Y-82499223D01*
X113037327Y-82602349D01*
X113077585Y-82681359D01*
X113077715Y-82681613D01*
X113198028Y-82847213D01*
X113342786Y-82991971D01*
X113463226Y-83079474D01*
X113508390Y-83112287D01*
X113624607Y-83171503D01*
X113690776Y-83205218D01*
X113690778Y-83205218D01*
X113690781Y-83205220D01*
X113795137Y-83239127D01*
X113885465Y-83268477D01*
X113986557Y-83284488D01*
X114087648Y-83300500D01*
X114087649Y-83300500D01*
X114292351Y-83300500D01*
X114292352Y-83300500D01*
X114494534Y-83268477D01*
X114689219Y-83205220D01*
X114871610Y-83112287D01*
X115027231Y-82999223D01*
X115037213Y-82991971D01*
X115037215Y-82991968D01*
X115037219Y-82991966D01*
X115181966Y-82847219D01*
X115181968Y-82847215D01*
X115181971Y-82847213D01*
X115302284Y-82681614D01*
X115302286Y-82681611D01*
X115302287Y-82681610D01*
X115349516Y-82588917D01*
X115397489Y-82538123D01*
X115465310Y-82521328D01*
X115531445Y-82543865D01*
X115570483Y-82588917D01*
X115577329Y-82602352D01*
X115617715Y-82681614D01*
X115738028Y-82847213D01*
X115882786Y-82991971D01*
X116003226Y-83079474D01*
X116048390Y-83112287D01*
X116164607Y-83171503D01*
X116230776Y-83205218D01*
X116230778Y-83205218D01*
X116230781Y-83205220D01*
X116335137Y-83239127D01*
X116425465Y-83268477D01*
X116526557Y-83284488D01*
X116627648Y-83300500D01*
X116627649Y-83300500D01*
X116832351Y-83300500D01*
X116832352Y-83300500D01*
X117034534Y-83268477D01*
X117229219Y-83205220D01*
X117411610Y-83112287D01*
X117567231Y-82999223D01*
X117577213Y-82991971D01*
X117577215Y-82991968D01*
X117577219Y-82991966D01*
X117721966Y-82847219D01*
X117721968Y-82847215D01*
X117721971Y-82847213D01*
X117842284Y-82681614D01*
X117842286Y-82681611D01*
X117842287Y-82681610D01*
X117889516Y-82588917D01*
X117937489Y-82538123D01*
X118005310Y-82521328D01*
X118071445Y-82543865D01*
X118110483Y-82588917D01*
X118117329Y-82602352D01*
X118157715Y-82681614D01*
X118278028Y-82847213D01*
X118422786Y-82991971D01*
X118543226Y-83079474D01*
X118588390Y-83112287D01*
X118704607Y-83171503D01*
X118770776Y-83205218D01*
X118770778Y-83205218D01*
X118770781Y-83205220D01*
X118875137Y-83239127D01*
X118965465Y-83268477D01*
X119066557Y-83284488D01*
X119167648Y-83300500D01*
X119167649Y-83300500D01*
X119372351Y-83300500D01*
X119372352Y-83300500D01*
X119574534Y-83268477D01*
X119769219Y-83205220D01*
X119951610Y-83112287D01*
X120107231Y-82999223D01*
X120117213Y-82991971D01*
X120117215Y-82991968D01*
X120117219Y-82991966D01*
X120261966Y-82847219D01*
X120261968Y-82847215D01*
X120261971Y-82847213D01*
X120382286Y-82681611D01*
X120382415Y-82681359D01*
X120429795Y-82588369D01*
X120477769Y-82537573D01*
X120545590Y-82520778D01*
X120611725Y-82543315D01*
X120650765Y-82588369D01*
X120698141Y-82681350D01*
X120698147Y-82681359D01*
X120730523Y-82725921D01*
X120730524Y-82725922D01*
X121410000Y-82046446D01*
X121410000Y-82052661D01*
X121437259Y-82154394D01*
X121489920Y-82245606D01*
X121564394Y-82320080D01*
X121655606Y-82372741D01*
X121757339Y-82400000D01*
X121763553Y-82400000D01*
X121084076Y-83079474D01*
X121128650Y-83111859D01*
X121310968Y-83204755D01*
X121505582Y-83267990D01*
X121707683Y-83300000D01*
X121912317Y-83300000D01*
X122114417Y-83267990D01*
X122309031Y-83204755D01*
X122491349Y-83111859D01*
X122535921Y-83079474D01*
X121856447Y-82400000D01*
X121862661Y-82400000D01*
X121964394Y-82372741D01*
X122055606Y-82320080D01*
X122130080Y-82245606D01*
X122182741Y-82154394D01*
X122210000Y-82052661D01*
X122210000Y-82046447D01*
X122889474Y-82725921D01*
X122921859Y-82681349D01*
X123014755Y-82499031D01*
X123047697Y-82397648D01*
X139699500Y-82397648D01*
X139699500Y-82602351D01*
X139731522Y-82804534D01*
X139794781Y-82999223D01*
X139887715Y-83181613D01*
X140008028Y-83347213D01*
X140152786Y-83491971D01*
X140307749Y-83604556D01*
X140318390Y-83612287D01*
X140434607Y-83671503D01*
X140500776Y-83705218D01*
X140500778Y-83705218D01*
X140500781Y-83705220D01*
X140605137Y-83739127D01*
X140695465Y-83768477D01*
X140796557Y-83784488D01*
X140897648Y-83800500D01*
X140897649Y-83800500D01*
X141102351Y-83800500D01*
X141102352Y-83800500D01*
X141304534Y-83768477D01*
X141499219Y-83705220D01*
X141681610Y-83612287D01*
X141774590Y-83544732D01*
X141847213Y-83491971D01*
X141847215Y-83491968D01*
X141847219Y-83491966D01*
X141991966Y-83347219D01*
X141991968Y-83347215D01*
X141991971Y-83347213D01*
X142095133Y-83205220D01*
X142112287Y-83181610D01*
X142205220Y-82999219D01*
X142268477Y-82804534D01*
X142285406Y-82697648D01*
X153199500Y-82697648D01*
X153199500Y-82902351D01*
X153231522Y-83104534D01*
X153294781Y-83299223D01*
X153387715Y-83481613D01*
X153508028Y-83647213D01*
X153652786Y-83791971D01*
X153807749Y-83904556D01*
X153818390Y-83912287D01*
X153934607Y-83971503D01*
X154000776Y-84005218D01*
X154000778Y-84005218D01*
X154000781Y-84005220D01*
X154105137Y-84039127D01*
X154195465Y-84068477D01*
X154296557Y-84084488D01*
X154397648Y-84100500D01*
X154397649Y-84100500D01*
X154602351Y-84100500D01*
X154602352Y-84100500D01*
X154804534Y-84068477D01*
X154999219Y-84005220D01*
X155181610Y-83912287D01*
X155274590Y-83844732D01*
X155347213Y-83791971D01*
X155347215Y-83791968D01*
X155347219Y-83791966D01*
X155491966Y-83647219D01*
X155491968Y-83647215D01*
X155491971Y-83647213D01*
X155604759Y-83491971D01*
X155612287Y-83481610D01*
X155705220Y-83299219D01*
X155768477Y-83104534D01*
X155800500Y-82902352D01*
X155800500Y-82697648D01*
X155769072Y-82499223D01*
X155768477Y-82495465D01*
X155728601Y-82372741D01*
X155705220Y-82300781D01*
X155705218Y-82300778D01*
X155705218Y-82300776D01*
X155651559Y-82195466D01*
X155612287Y-82118390D01*
X155584013Y-82079474D01*
X155491971Y-81952786D01*
X155347213Y-81808028D01*
X155181613Y-81687715D01*
X155181612Y-81687714D01*
X155181610Y-81687713D01*
X155100619Y-81646446D01*
X154999223Y-81594781D01*
X154804534Y-81531522D01*
X154611620Y-81500968D01*
X154602352Y-81499500D01*
X154397648Y-81499500D01*
X154388380Y-81500968D01*
X154195465Y-81531522D01*
X154000776Y-81594781D01*
X153818386Y-81687715D01*
X153652786Y-81808028D01*
X153508028Y-81952786D01*
X153387715Y-82118386D01*
X153294781Y-82300776D01*
X153231522Y-82495465D01*
X153199500Y-82697648D01*
X142285406Y-82697648D01*
X142300500Y-82602352D01*
X142300500Y-82397648D01*
X142268477Y-82195466D01*
X142243433Y-82118390D01*
X142205218Y-82000776D01*
X142152671Y-81897648D01*
X142112287Y-81818390D01*
X142045106Y-81725922D01*
X141991971Y-81652786D01*
X141847213Y-81508028D01*
X141681613Y-81387715D01*
X141681612Y-81387714D01*
X141681610Y-81387713D01*
X141614567Y-81353553D01*
X141499223Y-81294781D01*
X141304534Y-81231522D01*
X141129995Y-81203878D01*
X141102352Y-81199500D01*
X140897648Y-81199500D01*
X140873329Y-81203351D01*
X140695465Y-81231522D01*
X140500776Y-81294781D01*
X140318386Y-81387715D01*
X140152786Y-81508028D01*
X140008028Y-81652786D01*
X139887715Y-81818386D01*
X139794781Y-82000776D01*
X139731522Y-82195465D01*
X139699500Y-82397648D01*
X123047697Y-82397648D01*
X123077990Y-82304417D01*
X123110000Y-82102317D01*
X123110000Y-81897682D01*
X123077990Y-81695582D01*
X123014755Y-81500968D01*
X122921859Y-81318650D01*
X122889474Y-81274077D01*
X122889474Y-81274076D01*
X122210000Y-81953551D01*
X122210000Y-81947339D01*
X122182741Y-81845606D01*
X122130080Y-81754394D01*
X122055606Y-81679920D01*
X121964394Y-81627259D01*
X121862661Y-81600000D01*
X121856446Y-81600000D01*
X122535922Y-80920524D01*
X122535921Y-80920523D01*
X122504436Y-80897648D01*
X124699500Y-80897648D01*
X124699500Y-81102351D01*
X124731522Y-81304534D01*
X124794781Y-81499223D01*
X124858691Y-81624653D01*
X124887585Y-81681359D01*
X124887715Y-81681613D01*
X125008028Y-81847213D01*
X125152786Y-81991971D01*
X125307749Y-82104556D01*
X125318390Y-82112287D01*
X125401030Y-82154394D01*
X125500776Y-82205218D01*
X125500778Y-82205218D01*
X125500781Y-82205220D01*
X125605137Y-82239127D01*
X125695465Y-82268477D01*
X125796557Y-82284488D01*
X125897648Y-82300500D01*
X125897649Y-82300500D01*
X126102351Y-82300500D01*
X126102352Y-82300500D01*
X126304534Y-82268477D01*
X126499219Y-82205220D01*
X126681610Y-82112287D01*
X126774590Y-82044732D01*
X126847213Y-81991971D01*
X126847215Y-81991968D01*
X126847219Y-81991966D01*
X126991966Y-81847219D01*
X126991968Y-81847215D01*
X126991971Y-81847213D01*
X127059407Y-81754394D01*
X127112287Y-81681610D01*
X127205220Y-81499219D01*
X127268477Y-81304534D01*
X127300500Y-81102352D01*
X127300500Y-80897682D01*
X134860000Y-80897682D01*
X134860000Y-81102317D01*
X134892009Y-81304417D01*
X134955244Y-81499031D01*
X135048141Y-81681350D01*
X135048147Y-81681359D01*
X135080523Y-81725921D01*
X135080524Y-81725922D01*
X135760000Y-81046446D01*
X135760000Y-81052661D01*
X135787259Y-81154394D01*
X135839920Y-81245606D01*
X135914394Y-81320080D01*
X136005606Y-81372741D01*
X136107339Y-81400000D01*
X136113553Y-81400000D01*
X135434076Y-82079474D01*
X135478650Y-82111859D01*
X135660968Y-82204755D01*
X135855582Y-82267990D01*
X136057683Y-82300000D01*
X136262317Y-82300000D01*
X136449814Y-82270303D01*
X136464417Y-82267989D01*
X136659031Y-82204755D01*
X136841349Y-82111859D01*
X136885921Y-82079474D01*
X136206447Y-81400000D01*
X136212661Y-81400000D01*
X136314394Y-81372741D01*
X136405606Y-81320080D01*
X136480080Y-81245606D01*
X136532741Y-81154394D01*
X136560000Y-81052661D01*
X136560000Y-81046448D01*
X137239474Y-81725922D01*
X137239474Y-81725921D01*
X137271859Y-81681349D01*
X137364755Y-81499031D01*
X137427990Y-81304417D01*
X137460000Y-81102317D01*
X137460000Y-80897682D01*
X137427990Y-80695582D01*
X137364755Y-80500968D01*
X137271859Y-80318650D01*
X137239474Y-80274077D01*
X137239474Y-80274076D01*
X136560000Y-80953551D01*
X136560000Y-80947339D01*
X136532741Y-80845606D01*
X136480080Y-80754394D01*
X136405606Y-80679920D01*
X136314394Y-80627259D01*
X136212661Y-80600000D01*
X136206446Y-80600000D01*
X136885922Y-79920524D01*
X136885921Y-79920523D01*
X136841359Y-79888147D01*
X136841350Y-79888141D01*
X136659031Y-79795244D01*
X136464417Y-79732009D01*
X136262317Y-79700000D01*
X136057683Y-79700000D01*
X135855582Y-79732009D01*
X135660968Y-79795244D01*
X135478644Y-79888143D01*
X135434077Y-79920523D01*
X135434077Y-79920524D01*
X136113554Y-80600000D01*
X136107339Y-80600000D01*
X136005606Y-80627259D01*
X135914394Y-80679920D01*
X135839920Y-80754394D01*
X135787259Y-80845606D01*
X135760000Y-80947339D01*
X135760000Y-80953553D01*
X135080524Y-80274077D01*
X135080523Y-80274077D01*
X135048143Y-80318644D01*
X134955244Y-80500968D01*
X134892009Y-80695582D01*
X134860000Y-80897682D01*
X127300500Y-80897682D01*
X127300500Y-80897648D01*
X127284207Y-80794780D01*
X127268477Y-80695465D01*
X127237458Y-80600000D01*
X127205220Y-80500781D01*
X127205218Y-80500778D01*
X127205218Y-80500776D01*
X127112419Y-80318650D01*
X127112287Y-80318390D01*
X127080092Y-80274077D01*
X126991971Y-80152786D01*
X126847213Y-80008028D01*
X126681613Y-79887715D01*
X126681612Y-79887714D01*
X126681610Y-79887713D01*
X126624653Y-79858691D01*
X126499223Y-79794781D01*
X126304534Y-79731522D01*
X126129995Y-79703878D01*
X126102352Y-79699500D01*
X125897648Y-79699500D01*
X125873329Y-79703351D01*
X125695465Y-79731522D01*
X125500776Y-79794781D01*
X125318386Y-79887715D01*
X125152786Y-80008028D01*
X125008028Y-80152786D01*
X124887715Y-80318386D01*
X124794781Y-80500776D01*
X124731522Y-80695465D01*
X124699500Y-80897648D01*
X122504436Y-80897648D01*
X122491359Y-80888147D01*
X122491350Y-80888141D01*
X122309031Y-80795244D01*
X122114417Y-80732009D01*
X121912317Y-80700000D01*
X121707683Y-80700000D01*
X121505582Y-80732009D01*
X121310968Y-80795244D01*
X121128644Y-80888143D01*
X121084077Y-80920523D01*
X121084077Y-80920524D01*
X121763554Y-81600000D01*
X121757339Y-81600000D01*
X121655606Y-81627259D01*
X121564394Y-81679920D01*
X121489920Y-81754394D01*
X121437259Y-81845606D01*
X121410000Y-81947339D01*
X121410000Y-81953553D01*
X120730524Y-81274077D01*
X120730523Y-81274077D01*
X120698143Y-81318644D01*
X120650765Y-81411630D01*
X120602790Y-81462426D01*
X120534969Y-81479221D01*
X120468834Y-81456683D01*
X120429795Y-81411630D01*
X120382284Y-81318385D01*
X120261971Y-81152786D01*
X120117213Y-81008028D01*
X119951613Y-80887715D01*
X119951612Y-80887714D01*
X119951610Y-80887713D01*
X119894653Y-80858691D01*
X119769223Y-80794781D01*
X119574534Y-80731522D01*
X119399995Y-80703878D01*
X119372352Y-80699500D01*
X119167648Y-80699500D01*
X119143329Y-80703351D01*
X118965465Y-80731522D01*
X118770776Y-80794781D01*
X118588386Y-80887715D01*
X118422786Y-81008028D01*
X118278028Y-81152786D01*
X118157715Y-81318386D01*
X118110485Y-81411080D01*
X118062510Y-81461876D01*
X117994689Y-81478671D01*
X117928554Y-81456134D01*
X117889515Y-81411080D01*
X117860203Y-81353553D01*
X117842287Y-81318390D01*
X117825134Y-81294781D01*
X117721971Y-81152786D01*
X117577213Y-81008028D01*
X117411613Y-80887715D01*
X117411612Y-80887714D01*
X117411610Y-80887713D01*
X117354653Y-80858691D01*
X117229223Y-80794781D01*
X117034534Y-80731522D01*
X116859995Y-80703878D01*
X116832352Y-80699500D01*
X116627648Y-80699500D01*
X116603329Y-80703351D01*
X116425465Y-80731522D01*
X116230776Y-80794781D01*
X116048386Y-80887715D01*
X115882786Y-81008028D01*
X115738028Y-81152786D01*
X115617715Y-81318386D01*
X115570485Y-81411080D01*
X115522510Y-81461876D01*
X115454689Y-81478671D01*
X115388554Y-81456134D01*
X115349515Y-81411080D01*
X115320203Y-81353553D01*
X115302287Y-81318390D01*
X115285134Y-81294781D01*
X115181971Y-81152786D01*
X115037213Y-81008028D01*
X114871613Y-80887715D01*
X114871612Y-80887714D01*
X114871610Y-80887713D01*
X114814653Y-80858691D01*
X114689223Y-80794781D01*
X114494534Y-80731522D01*
X114319995Y-80703878D01*
X114292352Y-80699500D01*
X114087648Y-80699500D01*
X114063329Y-80703351D01*
X113885465Y-80731522D01*
X113690776Y-80794781D01*
X113508386Y-80887715D01*
X113342786Y-81008028D01*
X113198028Y-81152786D01*
X113077715Y-81318386D01*
X112984781Y-81500776D01*
X112921522Y-81695465D01*
X112889500Y-81897648D01*
X111000500Y-81897648D01*
X111000500Y-76897648D01*
X128449500Y-76897648D01*
X128449500Y-77102351D01*
X128481522Y-77304534D01*
X128544781Y-77499223D01*
X128608691Y-77624653D01*
X128637585Y-77681359D01*
X128637715Y-77681613D01*
X128758028Y-77847213D01*
X128902786Y-77991971D01*
X129023226Y-78079474D01*
X129068390Y-78112287D01*
X129184607Y-78171503D01*
X129250776Y-78205218D01*
X129250778Y-78205218D01*
X129250781Y-78205220D01*
X129355137Y-78239127D01*
X129445465Y-78268477D01*
X129546557Y-78284488D01*
X129647648Y-78300500D01*
X129647649Y-78300500D01*
X129852351Y-78300500D01*
X129852352Y-78300500D01*
X130054534Y-78268477D01*
X130249219Y-78205220D01*
X130431610Y-78112287D01*
X130524590Y-78044732D01*
X130597213Y-77991971D01*
X130597215Y-77991968D01*
X130597219Y-77991966D01*
X130741966Y-77847219D01*
X130741968Y-77847215D01*
X130741971Y-77847213D01*
X130862286Y-77681611D01*
X130862415Y-77681359D01*
X130909795Y-77588369D01*
X130957769Y-77537573D01*
X131025590Y-77520778D01*
X131091725Y-77543315D01*
X131130765Y-77588369D01*
X131178141Y-77681350D01*
X131178147Y-77681359D01*
X131210523Y-77725921D01*
X131210524Y-77725922D01*
X131890000Y-77046446D01*
X131890000Y-77052661D01*
X131917259Y-77154394D01*
X131969920Y-77245606D01*
X132044394Y-77320080D01*
X132135606Y-77372741D01*
X132237339Y-77400000D01*
X132243553Y-77400000D01*
X131564076Y-78079474D01*
X131608650Y-78111859D01*
X131790968Y-78204755D01*
X131985582Y-78267990D01*
X132187683Y-78300000D01*
X132392317Y-78300000D01*
X132594417Y-78267990D01*
X132789031Y-78204755D01*
X132971349Y-78111859D01*
X133015921Y-78079474D01*
X132336447Y-77400000D01*
X132342661Y-77400000D01*
X132444394Y-77372741D01*
X132535606Y-77320080D01*
X132610080Y-77245606D01*
X132662741Y-77154394D01*
X132690000Y-77052661D01*
X132690000Y-77046447D01*
X133369474Y-77725921D01*
X133401859Y-77681349D01*
X133494755Y-77499031D01*
X133557990Y-77304417D01*
X133590000Y-77102317D01*
X133590000Y-76897682D01*
X133557990Y-76695582D01*
X133494755Y-76500968D01*
X133401859Y-76318650D01*
X133369474Y-76274077D01*
X133369474Y-76274076D01*
X132690000Y-76953551D01*
X132690000Y-76947339D01*
X132662741Y-76845606D01*
X132610080Y-76754394D01*
X132535606Y-76679920D01*
X132444394Y-76627259D01*
X132342661Y-76600000D01*
X132336446Y-76600000D01*
X133015922Y-75920524D01*
X133015921Y-75920523D01*
X132971359Y-75888147D01*
X132971350Y-75888141D01*
X132789031Y-75795244D01*
X132594417Y-75732009D01*
X132392317Y-75700000D01*
X132187683Y-75700000D01*
X131985582Y-75732009D01*
X131790968Y-75795244D01*
X131608644Y-75888143D01*
X131564077Y-75920523D01*
X131564077Y-75920524D01*
X132243554Y-76600000D01*
X132237339Y-76600000D01*
X132135606Y-76627259D01*
X132044394Y-76679920D01*
X131969920Y-76754394D01*
X131917259Y-76845606D01*
X131890000Y-76947339D01*
X131890000Y-76953553D01*
X131210524Y-76274077D01*
X131210523Y-76274077D01*
X131178143Y-76318644D01*
X131130765Y-76411630D01*
X131082790Y-76462426D01*
X131014969Y-76479221D01*
X130948834Y-76456683D01*
X130909795Y-76411630D01*
X130862284Y-76318385D01*
X130741971Y-76152786D01*
X130597213Y-76008028D01*
X130431613Y-75887715D01*
X130431612Y-75887714D01*
X130431610Y-75887713D01*
X130374653Y-75858691D01*
X130249223Y-75794781D01*
X130054534Y-75731522D01*
X129879995Y-75703878D01*
X129852352Y-75699500D01*
X129647648Y-75699500D01*
X129623329Y-75703351D01*
X129445465Y-75731522D01*
X129250776Y-75794781D01*
X129068386Y-75887715D01*
X128902786Y-76008028D01*
X128758028Y-76152786D01*
X128637715Y-76318386D01*
X128544781Y-76500776D01*
X128481522Y-76695465D01*
X128449500Y-76897648D01*
X111000500Y-76897648D01*
X111000500Y-74277682D01*
X112890000Y-74277682D01*
X112890000Y-74482317D01*
X112922009Y-74684417D01*
X112985244Y-74879031D01*
X113078141Y-75061350D01*
X113078147Y-75061359D01*
X113110523Y-75105921D01*
X113110524Y-75105922D01*
X113790000Y-74426446D01*
X113790000Y-74432661D01*
X113817259Y-74534394D01*
X113869920Y-74625606D01*
X113944394Y-74700080D01*
X114035606Y-74752741D01*
X114137339Y-74780000D01*
X114143553Y-74780000D01*
X113464076Y-75459474D01*
X113508650Y-75491859D01*
X113690968Y-75584755D01*
X113885582Y-75647990D01*
X114087683Y-75680000D01*
X114292317Y-75680000D01*
X114494417Y-75647990D01*
X114689031Y-75584755D01*
X114871349Y-75491859D01*
X114915921Y-75459474D01*
X114236447Y-74780000D01*
X114242661Y-74780000D01*
X114344394Y-74752741D01*
X114435606Y-74700080D01*
X114510080Y-74625606D01*
X114562741Y-74534394D01*
X114590000Y-74432661D01*
X114590000Y-74426447D01*
X115269474Y-75105921D01*
X115301861Y-75061347D01*
X115301861Y-75061346D01*
X115349234Y-74968371D01*
X115397208Y-74917575D01*
X115465028Y-74900779D01*
X115531164Y-74923316D01*
X115570203Y-74968369D01*
X115617713Y-75061611D01*
X115738028Y-75227213D01*
X115882786Y-75371971D01*
X116003226Y-75459474D01*
X116048390Y-75492287D01*
X116164607Y-75551503D01*
X116230776Y-75585218D01*
X116230778Y-75585218D01*
X116230781Y-75585220D01*
X116321856Y-75614812D01*
X116425465Y-75648477D01*
X116526557Y-75664488D01*
X116627648Y-75680500D01*
X116627649Y-75680500D01*
X116832351Y-75680500D01*
X116832352Y-75680500D01*
X117034534Y-75648477D01*
X117229219Y-75585220D01*
X117411610Y-75492287D01*
X117540482Y-75398657D01*
X117577213Y-75371971D01*
X117577215Y-75371968D01*
X117577219Y-75371966D01*
X117721966Y-75227219D01*
X117721968Y-75227215D01*
X117721971Y-75227213D01*
X117842284Y-75061614D01*
X117842286Y-75061611D01*
X117842287Y-75061610D01*
X117889516Y-74968917D01*
X117937489Y-74918123D01*
X118005310Y-74901328D01*
X118071445Y-74923865D01*
X118110483Y-74968917D01*
X118116139Y-74980016D01*
X118157715Y-75061614D01*
X118278028Y-75227213D01*
X118422786Y-75371971D01*
X118543226Y-75459474D01*
X118588390Y-75492287D01*
X118704607Y-75551503D01*
X118770776Y-75585218D01*
X118770778Y-75585218D01*
X118770781Y-75585220D01*
X118861856Y-75614812D01*
X118965465Y-75648477D01*
X119066557Y-75664488D01*
X119167648Y-75680500D01*
X119167649Y-75680500D01*
X119372351Y-75680500D01*
X119372352Y-75680500D01*
X119574534Y-75648477D01*
X119769219Y-75585220D01*
X119951610Y-75492287D01*
X120080482Y-75398657D01*
X120117213Y-75371971D01*
X120117215Y-75371968D01*
X120117219Y-75371966D01*
X120261966Y-75227219D01*
X120330021Y-75133547D01*
X120385349Y-75090882D01*
X120454963Y-75084902D01*
X120516758Y-75117507D01*
X120548044Y-75167427D01*
X120575186Y-75249334D01*
X120667288Y-75398656D01*
X120791344Y-75522712D01*
X120940666Y-75614814D01*
X121107203Y-75669999D01*
X121209991Y-75680500D01*
X122410008Y-75680499D01*
X122512797Y-75669999D01*
X122679334Y-75614814D01*
X122828656Y-75522712D01*
X122952712Y-75398656D01*
X123044814Y-75249334D01*
X123099999Y-75082797D01*
X123110500Y-74980009D01*
X123110500Y-74897648D01*
X139699500Y-74897648D01*
X139699500Y-75102352D01*
X139701900Y-75117507D01*
X139731522Y-75304534D01*
X139794781Y-75499223D01*
X139853678Y-75614812D01*
X139887147Y-75680500D01*
X139887715Y-75681613D01*
X140008028Y-75847213D01*
X140152786Y-75991971D01*
X140307749Y-76104556D01*
X140318390Y-76112287D01*
X140397864Y-76152781D01*
X140500776Y-76205218D01*
X140500778Y-76205218D01*
X140500781Y-76205220D01*
X140605137Y-76239127D01*
X140695465Y-76268477D01*
X140730822Y-76274077D01*
X140897648Y-76300500D01*
X140897649Y-76300500D01*
X141102351Y-76300500D01*
X141102352Y-76300500D01*
X141304534Y-76268477D01*
X141499219Y-76205220D01*
X141681610Y-76112287D01*
X141774590Y-76044732D01*
X141847213Y-75991971D01*
X141847215Y-75991968D01*
X141847219Y-75991966D01*
X141991966Y-75847219D01*
X141991968Y-75847215D01*
X141991971Y-75847213D01*
X142076024Y-75731522D01*
X142112287Y-75681610D01*
X142205220Y-75499219D01*
X142268477Y-75304534D01*
X142300500Y-75102352D01*
X142300500Y-74897648D01*
X144699500Y-74897648D01*
X144699500Y-75102352D01*
X144701900Y-75117507D01*
X144731522Y-75304534D01*
X144794781Y-75499223D01*
X144853678Y-75614812D01*
X144887147Y-75680500D01*
X144887715Y-75681613D01*
X145008028Y-75847213D01*
X145152786Y-75991971D01*
X145307749Y-76104556D01*
X145318390Y-76112287D01*
X145397864Y-76152781D01*
X145500776Y-76205218D01*
X145500778Y-76205218D01*
X145500781Y-76205220D01*
X145605137Y-76239127D01*
X145695465Y-76268477D01*
X145730822Y-76274077D01*
X145897648Y-76300500D01*
X145897649Y-76300500D01*
X146102351Y-76300500D01*
X146102352Y-76300500D01*
X146304534Y-76268477D01*
X146499219Y-76205220D01*
X146681610Y-76112287D01*
X146774590Y-76044732D01*
X146847213Y-75991971D01*
X146847215Y-75991968D01*
X146847219Y-75991966D01*
X146991966Y-75847219D01*
X146991968Y-75847215D01*
X146991971Y-75847213D01*
X147076024Y-75731522D01*
X147112287Y-75681610D01*
X147205220Y-75499219D01*
X147268477Y-75304534D01*
X147300500Y-75102352D01*
X147300500Y-75097648D01*
X153199500Y-75097648D01*
X153199500Y-75302351D01*
X153231522Y-75504534D01*
X153294781Y-75699223D01*
X153387715Y-75881613D01*
X153508028Y-76047213D01*
X153652786Y-76191971D01*
X153765798Y-76274077D01*
X153818390Y-76312287D01*
X153934607Y-76371503D01*
X154000776Y-76405218D01*
X154000778Y-76405218D01*
X154000781Y-76405220D01*
X154105137Y-76439127D01*
X154195465Y-76468477D01*
X154263300Y-76479221D01*
X154397648Y-76500500D01*
X154397649Y-76500500D01*
X154602351Y-76500500D01*
X154602352Y-76500500D01*
X154804534Y-76468477D01*
X154999219Y-76405220D01*
X155181610Y-76312287D01*
X155274590Y-76244732D01*
X155347213Y-76191971D01*
X155347215Y-76191968D01*
X155347219Y-76191966D01*
X155491966Y-76047219D01*
X155491968Y-76047215D01*
X155491971Y-76047213D01*
X155544732Y-75974590D01*
X155612287Y-75881610D01*
X155705220Y-75699219D01*
X155768477Y-75504534D01*
X155800500Y-75302352D01*
X155800500Y-75097648D01*
X155771979Y-74917575D01*
X155768477Y-74895465D01*
X155705218Y-74700776D01*
X155620441Y-74534394D01*
X155612287Y-74518390D01*
X155550002Y-74432661D01*
X155491971Y-74352786D01*
X155347213Y-74208028D01*
X155181613Y-74087715D01*
X155181612Y-74087714D01*
X155181610Y-74087713D01*
X155124653Y-74058691D01*
X154999223Y-73994781D01*
X154804534Y-73931522D01*
X154629995Y-73903878D01*
X154602352Y-73899500D01*
X154397648Y-73899500D01*
X154373329Y-73903351D01*
X154195465Y-73931522D01*
X154000776Y-73994781D01*
X153818386Y-74087715D01*
X153652786Y-74208028D01*
X153508028Y-74352786D01*
X153387715Y-74518386D01*
X153294781Y-74700776D01*
X153231522Y-74895465D01*
X153199500Y-75097648D01*
X147300500Y-75097648D01*
X147300500Y-74897648D01*
X147277549Y-74752741D01*
X147268477Y-74695465D01*
X147239127Y-74605137D01*
X147205220Y-74500781D01*
X147205218Y-74500778D01*
X147205218Y-74500776D01*
X147143679Y-74380001D01*
X147112287Y-74318390D01*
X147082711Y-74277682D01*
X146991971Y-74152786D01*
X146847213Y-74008028D01*
X146681613Y-73887715D01*
X146681612Y-73887714D01*
X146681610Y-73887713D01*
X146624612Y-73858671D01*
X146499223Y-73794781D01*
X146304534Y-73731522D01*
X146129995Y-73703878D01*
X146102352Y-73699500D01*
X145897648Y-73699500D01*
X145873329Y-73703351D01*
X145695465Y-73731522D01*
X145500776Y-73794781D01*
X145318386Y-73887715D01*
X145152786Y-74008028D01*
X145008028Y-74152786D01*
X144887715Y-74318386D01*
X144794781Y-74500776D01*
X144731522Y-74695465D01*
X144702449Y-74879031D01*
X144699500Y-74897648D01*
X142300500Y-74897648D01*
X142277549Y-74752741D01*
X142268477Y-74695465D01*
X142239127Y-74605137D01*
X142205220Y-74500781D01*
X142205218Y-74500778D01*
X142205218Y-74500776D01*
X142143679Y-74380001D01*
X142112287Y-74318390D01*
X142082711Y-74277682D01*
X141991971Y-74152786D01*
X141847213Y-74008028D01*
X141681613Y-73887715D01*
X141681612Y-73887714D01*
X141681610Y-73887713D01*
X141624612Y-73858671D01*
X141499223Y-73794781D01*
X141304534Y-73731522D01*
X141129995Y-73703878D01*
X141102352Y-73699500D01*
X140897648Y-73699500D01*
X140873329Y-73703351D01*
X140695465Y-73731522D01*
X140500776Y-73794781D01*
X140318386Y-73887715D01*
X140152786Y-74008028D01*
X140008028Y-74152786D01*
X139887715Y-74318386D01*
X139794781Y-74500776D01*
X139731522Y-74695465D01*
X139702449Y-74879031D01*
X139699500Y-74897648D01*
X123110500Y-74897648D01*
X123110499Y-74380000D01*
X123110499Y-73779998D01*
X123110498Y-73779981D01*
X123099999Y-73677203D01*
X123099998Y-73677200D01*
X123083181Y-73626451D01*
X123044814Y-73510666D01*
X122952712Y-73361344D01*
X122828656Y-73237288D01*
X122679334Y-73145186D01*
X122512797Y-73090001D01*
X122512795Y-73090000D01*
X122410010Y-73079500D01*
X121209998Y-73079500D01*
X121209981Y-73079501D01*
X121107203Y-73090000D01*
X121107200Y-73090001D01*
X120940668Y-73145185D01*
X120940663Y-73145187D01*
X120791342Y-73237289D01*
X120667289Y-73361342D01*
X120575187Y-73510663D01*
X120575186Y-73510666D01*
X120548045Y-73592571D01*
X120508271Y-73650016D01*
X120443755Y-73676838D01*
X120374979Y-73664522D01*
X120330021Y-73626452D01*
X120261966Y-73532781D01*
X120117219Y-73388034D01*
X120117213Y-73388028D01*
X119951613Y-73267715D01*
X119951612Y-73267714D01*
X119951610Y-73267713D01*
X119891898Y-73237288D01*
X119769223Y-73174781D01*
X119574534Y-73111522D01*
X119399995Y-73083878D01*
X119372352Y-73079500D01*
X119167648Y-73079500D01*
X119143329Y-73083351D01*
X118965465Y-73111522D01*
X118770776Y-73174781D01*
X118588386Y-73267715D01*
X118422786Y-73388028D01*
X118278028Y-73532786D01*
X118157715Y-73698386D01*
X118110485Y-73791080D01*
X118062510Y-73841876D01*
X117994689Y-73858671D01*
X117928554Y-73836134D01*
X117889515Y-73791080D01*
X117859169Y-73731523D01*
X117842287Y-73698390D01*
X117810092Y-73654077D01*
X117721971Y-73532786D01*
X117577213Y-73388028D01*
X117411613Y-73267715D01*
X117411612Y-73267714D01*
X117411610Y-73267713D01*
X117351898Y-73237288D01*
X117229223Y-73174781D01*
X117034534Y-73111522D01*
X116859995Y-73083878D01*
X116832352Y-73079500D01*
X116627648Y-73079500D01*
X116603329Y-73083351D01*
X116425465Y-73111522D01*
X116230776Y-73174781D01*
X116048386Y-73267715D01*
X115882786Y-73388028D01*
X115738028Y-73532786D01*
X115617713Y-73698388D01*
X115570203Y-73791630D01*
X115522228Y-73842426D01*
X115454407Y-73859220D01*
X115388272Y-73836682D01*
X115349234Y-73791628D01*
X115301861Y-73698652D01*
X115269474Y-73654077D01*
X115269474Y-73654076D01*
X114590000Y-74333551D01*
X114590000Y-74327339D01*
X114562741Y-74225606D01*
X114510080Y-74134394D01*
X114435606Y-74059920D01*
X114344394Y-74007259D01*
X114242661Y-73980000D01*
X114236446Y-73980000D01*
X114915922Y-73300524D01*
X114915921Y-73300523D01*
X114871359Y-73268147D01*
X114871350Y-73268141D01*
X114689031Y-73175244D01*
X114494417Y-73112009D01*
X114292317Y-73080000D01*
X114087683Y-73080000D01*
X113885582Y-73112009D01*
X113690968Y-73175244D01*
X113508644Y-73268143D01*
X113464077Y-73300523D01*
X113464077Y-73300524D01*
X114143554Y-73980000D01*
X114137339Y-73980000D01*
X114035606Y-74007259D01*
X113944394Y-74059920D01*
X113869920Y-74134394D01*
X113817259Y-74225606D01*
X113790000Y-74327339D01*
X113790000Y-74333553D01*
X113110524Y-73654077D01*
X113110523Y-73654077D01*
X113078143Y-73698644D01*
X112985244Y-73880968D01*
X112922009Y-74075582D01*
X112890000Y-74277682D01*
X111000500Y-74277682D01*
X111000500Y-72124500D01*
X111020185Y-72057461D01*
X111072989Y-72011706D01*
X111124500Y-72000500D01*
X160876000Y-72000500D01*
X160943039Y-72020185D01*
G37*
%TD.AperFunction*%
%TD*%
M02*
