%TF.GenerationSoftware,KiCad,Pcbnew,9.0.6*%
%TF.CreationDate,2026-01-05T22:50:17-06:00*%
%TF.ProjectId,learntosolderkit,6c656172-6e74-46f7-936f-6c6465726b69,rev?*%
%TF.SameCoordinates,Original*%
%TF.FileFunction,Soldermask,Bot*%
%TF.FilePolarity,Negative*%
%FSLAX46Y46*%
G04 Gerber Fmt 4.6, Leading zero omitted, Abs format (unit mm)*
G04 Created by KiCad (PCBNEW 9.0.6) date 2026-01-05 22:50:17*
%MOMM*%
%LPD*%
G01*
G04 APERTURE LIST*
G04 Aperture macros list*
%AMRoundRect*
0 Rectangle with rounded corners*
0 $1 Rounding radius*
0 $2 $3 $4 $5 $6 $7 $8 $9 X,Y pos of 4 corners*
0 Add a 4 corners polygon primitive as box body*
4,1,4,$2,$3,$4,$5,$6,$7,$8,$9,$2,$3,0*
0 Add four circle primitives for the rounded corners*
1,1,$1+$1,$2,$3*
1,1,$1+$1,$4,$5*
1,1,$1+$1,$6,$7*
1,1,$1+$1,$8,$9*
0 Add four rect primitives between the rounded corners*
20,1,$1+$1,$2,$3,$4,$5,0*
20,1,$1+$1,$4,$5,$6,$7,0*
20,1,$1+$1,$6,$7,$8,$9,0*
20,1,$1+$1,$8,$9,$2,$3,0*%
G04 Aperture macros list end*
%ADD10C,1.600000*%
%ADD11C,2.000000*%
%ADD12RoundRect,0.250000X-0.550000X0.550000X-0.550000X-0.550000X0.550000X-0.550000X0.550000X0.550000X0*%
G04 APERTURE END LIST*
D10*
%TO.C,REF\u002A\u002A*%
X172980000Y-106840000D03*
X170440000Y-106840000D03*
X167900000Y-106840000D03*
X165360000Y-106840000D03*
X162820000Y-106840000D03*
X172980000Y-104300000D03*
X170440000Y-104300000D03*
X167900000Y-104300000D03*
X165360000Y-104300000D03*
X162820000Y-104300000D03*
X162820000Y-73820000D03*
X162820000Y-76360000D03*
X162820000Y-78900000D03*
X162820000Y-81440000D03*
X162820000Y-83980000D03*
X162820000Y-86520000D03*
X162820000Y-89060000D03*
X162820000Y-91600000D03*
X162820000Y-94140000D03*
X162820000Y-96680000D03*
X162820000Y-99220000D03*
X162820000Y-101760000D03*
X165360000Y-73820000D03*
X165360000Y-76360000D03*
X165360000Y-78900000D03*
X165360000Y-81440000D03*
X165360000Y-83980000D03*
X165360000Y-86520000D03*
X165360000Y-89060000D03*
X165360000Y-91600000D03*
X165360000Y-94140000D03*
X165360000Y-96680000D03*
X165360000Y-99220000D03*
X165360000Y-101760000D03*
X167900000Y-73820000D03*
X167900000Y-76360000D03*
X167900000Y-78900000D03*
X167900000Y-81440000D03*
X167900000Y-83980000D03*
X167900000Y-86520000D03*
X167900000Y-89060000D03*
X167900000Y-91600000D03*
X167900000Y-94140000D03*
X167900000Y-96680000D03*
X167900000Y-99220000D03*
X167900000Y-101760000D03*
X170440000Y-73820000D03*
X170440000Y-76360000D03*
X170440000Y-78900000D03*
X170440000Y-81440000D03*
X170440000Y-83980000D03*
X170440000Y-86520000D03*
X170440000Y-89060000D03*
X170440000Y-91600000D03*
X170440000Y-94140000D03*
X170440000Y-96680000D03*
X170440000Y-99220000D03*
X170440000Y-101760000D03*
X172980000Y-73820000D03*
X172980000Y-76360000D03*
X172980000Y-78900000D03*
X172980000Y-81440000D03*
X172980000Y-83980000D03*
X172980000Y-86520000D03*
X172980000Y-89060000D03*
X172980000Y-91600000D03*
X172980000Y-94140000D03*
X172980000Y-96680000D03*
X172980000Y-99220000D03*
X172980000Y-101760000D03*
%TD*%
%TO.C,BZ1*%
X154500000Y-82800000D03*
X154500000Y-75200000D03*
%TD*%
%TO.C,RV2*%
X129640000Y-91440000D03*
X127100000Y-93980000D03*
X124800000Y-91440000D03*
%TD*%
%TO.C,J1*%
X129750000Y-77000000D03*
X132290000Y-77000000D03*
%TD*%
%TO.C,R2*%
X146000000Y-75000000D03*
X146000000Y-85160000D03*
%TD*%
D11*
%TO.C,SW3*%
X140250000Y-99750000D03*
X140250000Y-106250000D03*
X135750000Y-99750000D03*
X135750000Y-106250000D03*
%TD*%
D10*
%TO.C,R1*%
X136160000Y-81000000D03*
X126000000Y-81000000D03*
%TD*%
%TO.C,C1*%
X141000000Y-82500000D03*
X141000000Y-75000000D03*
%TD*%
D12*
%TO.C,U1*%
X121810000Y-74380000D03*
D10*
X119270000Y-74380000D03*
X116730000Y-74380000D03*
X114190000Y-74380000D03*
X114190000Y-82000000D03*
X116730000Y-82000000D03*
X119270000Y-82000000D03*
X121810000Y-82000000D03*
%TD*%
D11*
%TO.C,SW1*%
X119250000Y-99750000D03*
X119250000Y-106250000D03*
X114750000Y-99750000D03*
X114750000Y-106250000D03*
%TD*%
%TO.C,SW2*%
X129500000Y-99750000D03*
X129500000Y-106250000D03*
X125000000Y-99750000D03*
X125000000Y-106250000D03*
%TD*%
D10*
%TO.C,RV3*%
X135700000Y-91540000D03*
X138000000Y-94080000D03*
X140540000Y-91540000D03*
%TD*%
%TO.C,RV1*%
X119340000Y-91440000D03*
X116800000Y-93980000D03*
X114500000Y-91440000D03*
%TD*%
M02*
